<svg id="Persona_Candidato" data-name="Persona Candidato" xmlns="http://www.w3.org/2000/svg" viewBox="0 0 1000 1000"><defs><style>.cls-1{fill:#020202;}.cls-2{fill:#688f9b;}</style></defs><path class="cls-1" d="M136.09,501.61l-3.15.37a5.43,5.43,0,0,1-6-4.76l-5.08-43.87-.93,71.23,5.92,51a5.43,5.43,0,0,1-4.76,6l-3.15.36a5.42,5.42,0,0,1-6-4.75l-5.64-48.68a5.07,5.07,0,0,1,0-.55H98.41l0,.36L92.74,577a5.42,5.42,0,0,1-6,4.75l-3.15-.36a5.43,5.43,0,0,1-4.76-6l5.64-48.64L83.16,451l-5.38,46.44a5.43,5.43,0,0,1-6,4.77l-3.15-.37a5.4,5.4,0,0,1-4.75-6l5.64-48.67a6.59,6.59,0,0,1,7.3-5.79l6.19.72V442h37.63l7.27-.84a6.59,6.59,0,0,1,7.3,5.78l5.64,48.68A5.4,5.4,0,0,1,136.09,501.61Z"/><circle class="cls-1" cx="102.5" cy="422.5" r="16.5"/><path class="cls-1" d="M236.1,501.92l-3.15.37a5.43,5.43,0,0,1-6-4.76l-5.08-43.87-.93,71.23,5.92,51a5.43,5.43,0,0,1-4.76,6l-3.15.36a5.42,5.42,0,0,1-6-4.75l-5.64-48.68a5.07,5.07,0,0,1,0-.55h-8.85l0,.36-5.64,48.68a5.42,5.42,0,0,1-6,4.75l-3.15-.36a5.43,5.43,0,0,1-4.76-6l5.64-48.64-1.31-75.76-5.38,46.44a5.43,5.43,0,0,1-6,4.77l-3.15-.37a5.4,5.4,0,0,1-4.75-6l5.64-48.67a6.59,6.59,0,0,1,7.3-5.79l6.19.72v-.12h37.63l7.27-.84a6.59,6.59,0,0,1,7.3,5.78l5.64,48.68A5.4,5.4,0,0,1,236.1,501.92Z"/><circle class="cls-1" cx="202.51" cy="422.81" r="16.5"/><path class="cls-1" d="M335.61,501.65l-3.15.37a5.43,5.43,0,0,1-6-4.76l-5.08-43.87-.93,71.23,5.92,51a5.43,5.43,0,0,1-4.76,6l-3.15.36a5.42,5.42,0,0,1-6-4.75l-5.64-48.68a5.07,5.07,0,0,1,0-.55h-8.85l0,.36-5.64,48.68a5.42,5.42,0,0,1-6,4.75l-3.15-.36a5.43,5.43,0,0,1-4.76-6L284,526.82l-1.31-75.76L277.3,497.5a5.43,5.43,0,0,1-6,4.77l-3.15-.37a5.4,5.4,0,0,1-4.75-6L269,447.23a6.59,6.59,0,0,1,7.3-5.79l6.19.72V442h37.63l7.27-.84a6.59,6.59,0,0,1,7.3,5.78l5.64,48.68A5.4,5.4,0,0,1,335.61,501.65Z"/><circle class="cls-1" cx="302.02" cy="422.54" r="16.5"/><path class="cls-1" d="M437.4,502l-3.15.37a5.43,5.43,0,0,1-6-4.76l-5.08-43.87L422.23,525l5.92,51a5.43,5.43,0,0,1-4.76,6l-3.15.36a5.42,5.42,0,0,1-6-4.75L408.6,529a5.07,5.07,0,0,1,0-.55h-8.85l0,.36-5.64,48.68a5.42,5.42,0,0,1-6,4.75l-3.15-.36a5.43,5.43,0,0,1-4.76-6l5.64-48.64-1.31-75.76-5.38,46.44a5.43,5.43,0,0,1-6,4.77l-3.15-.37a5.4,5.4,0,0,1-4.75-6l5.64-48.67a6.59,6.59,0,0,1,7.3-5.79l6.19.72v-.12h37.63l7.27-.84a6.59,6.59,0,0,1,7.3,5.78l5.64,48.68A5.4,5.4,0,0,1,437.4,502Z"/><circle class="cls-1" cx="403.81" cy="422.93" r="16.5"/><path class="cls-1" d="M665.72,501.51l-3.15.37a5.43,5.43,0,0,1-6-4.76l-5.08-43.87-.93,71.23,5.92,51a5.43,5.43,0,0,1-4.76,6l-3.15.36a5.42,5.42,0,0,1-6-4.75l-5.64-48.68a5.07,5.07,0,0,1,0-.55H628l0,.36-5.64,48.68a5.42,5.42,0,0,1-6,4.75l-3.15-.36a5.43,5.43,0,0,1-4.76-6l5.64-48.64-1.31-75.76-5.38,46.44a5.43,5.43,0,0,1-6,4.77l-3.15-.37a5.4,5.4,0,0,1-4.75-6l5.64-48.67a6.59,6.59,0,0,1,7.3-5.79l6.19.72v-.12h37.63l7.27-.84a6.59,6.59,0,0,1,7.3,5.78l5.64,48.68A5.4,5.4,0,0,1,665.72,501.51Z"/><circle class="cls-1" cx="632.13" cy="422.4" r="16.5"/><path class="cls-1" d="M765.73,501.82l-3.15.37a5.43,5.43,0,0,1-6-4.76l-5.08-43.87-.93,71.23,5.92,51a5.43,5.43,0,0,1-4.76,6l-3.15.36a5.42,5.42,0,0,1-6-4.75l-5.64-48.68a5.07,5.07,0,0,1,0-.55h-8.85l0,.36-5.64,48.68a5.42,5.42,0,0,1-6,4.75l-3.15-.36a5.43,5.43,0,0,1-4.76-6L714.11,527l-1.31-75.76-5.38,46.44a5.43,5.43,0,0,1-6,4.77l-3.15-.37a5.4,5.4,0,0,1-4.75-6l5.64-48.67a6.59,6.59,0,0,1,7.3-5.79l6.19.72v-.12h37.63l7.27-.84a6.59,6.59,0,0,1,7.3,5.78l5.64,48.68A5.4,5.4,0,0,1,765.73,501.82Z"/><circle class="cls-1" cx="732.14" cy="422.71" r="16.5"/><path class="cls-1" d="M865.24,501.54l-3.15.37a5.43,5.43,0,0,1-6-4.76L851,453.28l-.93,71.23,5.92,51a5.43,5.43,0,0,1-4.76,6l-3.15.36a5.42,5.42,0,0,1-6-4.75l-5.64-48.68a5.07,5.07,0,0,1,0-.55h-8.85l0,.36L821.89,577a5.42,5.42,0,0,1-6,4.75l-3.15-.36a5.43,5.43,0,0,1-4.76-6l5.64-48.64L812.31,451l-5.38,46.44a5.43,5.43,0,0,1-6,4.77l-3.15-.37a5.4,5.4,0,0,1-4.75-6l5.64-48.67a6.59,6.59,0,0,1,7.3-5.79l6.19.72v-.12h37.63l7.27-.84a6.59,6.59,0,0,1,7.3,5.78L870,495.55A5.4,5.4,0,0,1,865.24,501.54Z"/><circle class="cls-1" cx="831.65" cy="422.43" r="16.5"/><path class="cls-1" d="M967,501.93l-3.15.37a5.43,5.43,0,0,1-6-4.76l-5.08-43.87-.93,71.23,5.92,51a5.43,5.43,0,0,1-4.76,6l-3.15.36a5.42,5.42,0,0,1-6-4.75l-5.64-48.68a5.07,5.07,0,0,1,0-.55h-8.85l0,.36-5.64,48.68a5.42,5.42,0,0,1-6,4.75l-3.15-.36a5.43,5.43,0,0,1-4.76-6l5.64-48.64-1.31-75.76-5.38,46.44a5.43,5.43,0,0,1-6,4.77l-3.15-.37a5.4,5.4,0,0,1-4.75-6l5.64-48.67a6.59,6.59,0,0,1,7.3-5.79l6.19.72v-.12h37.63l7.27-.84a6.59,6.59,0,0,1,7.3,5.78l5.64,48.68A5.4,5.4,0,0,1,967,501.93Z"/><circle class="cls-1" cx="933.44" cy="422.82" r="16.5"/><path class="cls-1" d="M567.54,496.9l-4.91.57a8.46,8.46,0,0,1-9.36-7.41l-7.91-68.32-1.45,110.93,9.22,79.47a8.45,8.45,0,0,1-7.41,9.36l-4.91.56a8.43,8.43,0,0,1-9.34-7.4l-8.78-75.81a8.08,8.08,0,0,1-.05-.85H508.86c0,.18,0,.37-.05.56L500,614.37a8.45,8.45,0,0,1-9.35,7.4l-4.9-.57a8.46,8.46,0,0,1-7.42-9.35l8.79-75.75-2-118-8.38,72.32a8.46,8.46,0,0,1-9.36,7.43l-4.91-.57a8.41,8.41,0,0,1-7.39-9.35l8.78-75.79a10.26,10.26,0,0,1,11.37-9l9.64,1.12v-.19h58.6l11.32-1.3a10.25,10.25,0,0,1,11.37,9l8.79,75.81A8.42,8.42,0,0,1,567.54,496.9Z"/><circle class="cls-1" cx="515.23" cy="373.7" r="25.7"/><path class="cls-2" d="M666.3,379C612.92,298.19,503.77,275.9,423,329.28S319.9,491.82,373.28,572.61c50.77,76.82,151.93,100.75,231.19,57l55.39,83.82a22.36,22.36,0,0,0-.74,25.71L735,854a22.35,22.35,0,0,0,31,6.33L780.11,851a22.36,22.36,0,0,0,6.32-31L710.53,705.2a22.38,22.38,0,0,0-23.94-9.41L631,611.69C699.87,555.44,716.36,454.73,666.3,379ZM408.24,549.51C367.6,488,384.58,404.88,446.08,364.24s144.62-23.66,185.27,37.84S655,546.7,593.51,587.35,448.88,611,408.24,549.51Z"/></svg>