<svg id="Bolso_Trabajador" data-name="Bolso Trabajador" xmlns="http://www.w3.org/2000/svg" viewBox="0 0 1000 1000"><defs><style>.cls-1,.cls-2{fill:#020202;}.cls-2{opacity:0.18;}.cls-3{fill:#688f9b;}</style></defs><path class="cls-1" d="M977,385.4V831.65c0,25.49-17.32,46.35-38.48,46.35l-438.9-1.38H60.09c-21.18,0-38.48-20.87-38.48-46.35V384c2.87,3.29,5.74,6.56,8.71,9.74,53.43,57.33,118.12,96.26,186.9,119,84,27.8,170.88,19.84,256.57,30.47v50.07c0,40.95,52.83,41,52.83,0v-48.9c85.14-10.3,171.4-2.63,254.8-30.23,68.78-22.77,133.45-61.71,186.88-119C971.27,392,974.16,388.69,977,385.4Z"/><path class="cls-2" d="M935.5,434.72c-52.13,39.37-109.31,68.44-172.11,84.9H975.88V402.2C962.72,413.4,949.31,424.29,935.5,434.72Z"/><path class="cls-3" d="M479.67,549H521a0,0,0,0,1,0,0v45.24a20.68,20.68,0,0,1-20.68,20.68h0a20.66,20.66,0,0,1-20.66-20.66V549A0,0,0,0,1,479.67,549Z"/><polygon class="cls-1" points="501.08 156.65 500.34 156.65 500.34 156.63 501.08 156.65"/><path class="cls-3" d="M941.22,216.38H626.7V136a22.94,22.94,0,0,0-23-22.95H500.57l-102.85.48a22.94,22.94,0,0,0-23,23v80.32H56.64c-19.27,0-34.87,13.66-34.87,30.5V360.1c42.36,36.43,87.05,70.8,137.7,95.91,65.22,32.3,137,44.13,209.33,50.65,42.85,3.89,85.85,6.09,128.88,6.18.92,0,2.66-.11,2.66-.11h2.3c42.75-.09,85.85-2.57,128.4-6.43,71.86-6.53,143.21-18.36,208-50.68,50.31-25.09,94.71-59.46,136.82-95.89V246.89C975.88,230.05,960.38,216.38,941.22,216.38Zm-440.88,0v.37H408.82v-45a15.26,15.26,0,0,1,15.6-15.57l75.92.44.74,0,1.56,0,74.41-.92a15.27,15.27,0,0,1,15.58,15.57v45.1Z"/><polygon class="cls-1" points="502.64 156.63 502.64 156.65 501.08 156.65 502.64 156.63"/></svg>