<svg id="Gráfica" xmlns="http://www.w3.org/2000/svg" viewBox="0 0 1000 1000"><defs><style>.cls-1{fill:#9783b8;}.cls-2{fill:#5b7c84;}.cls-3{fill:#688f9b;}.cls-4{fill:#d8401f;}.cls-5{fill:#a3521f;}.cls-6{fill:#e43a33;}.cls-7{fill:#f49c87;}.cls-8{fill:#dc3e1c;}.cls-9{fill:#de7365;}.cls-10{fill:#532213;}.cls-11{fill:#67351b;}.cls-12{fill:#222021;}.cls-13{fill:#f49f88;}.cls-14{fill:#454444;}.cls-15{fill:#444446;}.cls-16{fill:#c7601e;}.cls-17{fill:#fff;}.cls-18{fill:#ea515d;}.cls-19{fill:#d6431e;}.cls-20{fill:#fffcfd;}.cls-21{fill:#ed6c48;}.cls-22{fill:#e89505;}.cls-23{fill:#f6ac95;}.cls-24{fill:#454346;}.cls-25{fill:#66311d;}.cls-26{fill:#f39b83;}.cls-27{fill:#202020;}.cls-28{fill:#9f4d19;}.cls-29{fill:#474747;}.cls-30{fill:#1e1e1e;}.cls-31{fill:#d8411d;}.cls-32{fill:#cc3f2d;}.cls-33{fill:#f08068;}.cls-34{fill:#cb5e1d;}.cls-35{fill:#f0806a;}.cls-36{fill:#29272a;}.cls-37{fill:#282828;}</style></defs><ellipse class="cls-1" cx="674.7" cy="866.77" rx="181.87" ry="15.23"/><polygon class="cls-2" points="106.8 795.18 53.37 869.98 32 869.98 74.74 768.46 106.8 795.18"/><polygon class="cls-3" points="121.49 767.13 74.74 768.46 192.29 869.98 202.97 823.23 121.49 767.13"/><polygon class="cls-2" points="336.54 624.21 265.75 869.98 192.29 869.98 257.74 570.78 336.54 624.21"/><polygon class="cls-3" points="357.92 570.78 257.74 570.78 434.05 690.99 452.75 617.53 357.92 570.78"/><polygon class="cls-2" points="584.99 487.96 538.24 660.27 434.05 690.99 493.98 435.87 584.99 487.96"/><polygon class="cls-3" points="602.5 435.87 494.16 435.87 669.14 537.38 701.2 475.94 602.5 435.87"/><polygon class="cls-2" points="942.29 108.53 969.01 291.52 968.34 291.61 941.62 108.62 942.29 108.53"/><polygon class="cls-2" points="941.62 108.62 968.34 291.61 967.67 291.71 967.66 291.61 941.14 110.01 941.4 109.79 941.06 109.41 940.96 108.71 941.62 108.62"/><polygon class="cls-2" points="967.67 292.28 967.68 292.95 918.62 294.27 918.81 293.99 918.25 293.62 967.67 292.28"/><polygon class="cls-2" points="967.66 291.61 967.67 292.28 918.25 293.62 918.24 292.95 967.66 291.61"/><polygon class="cls-2" points="941.14 110.01 967.66 291.61 918.24 292.95 918.25 293.62 917.69 293.24 778.91 501.41 671.13 535.6 795.95 292.59 795.36 292.28 795.35 291.61 731.74 292.91 941.14 110.01"/><polygon class="cls-2" points="941.06 109.41 941.4 109.79 941.14 110.01 941.06 109.41"/><polygon class="cls-2" points="941.06 109.41 941.14 110.01 731.74 292.91 730.7 292.94 940.96 109.29 941.06 109.41"/><polygon class="cls-2" points="940.52 108.78 940.96 109.29 730.7 292.94 729.9 292.95 729.91 293.62 729.47 293.11 940.52 108.78"/><polygon class="cls-2" points="918.81 293.99 918.62 294.27 918.26 294.28 918.25 293.62 918.81 293.99"/><polygon class="cls-2" points="918.62 294.27 779.89 502.36 779.33 501.99 918.25 293.62 918.26 294.28 918.62 294.27"/><polygon class="cls-2" points="918.25 293.62 779.33 501.99 779.13 501.35 778.91 501.41 917.69 293.24 918.25 293.62"/><polygon class="cls-2" points="795.95 292.59 671.13 535.6 670.23 535.88 795.02 292.96 795.38 292.95 795.36 292.28 795.95 292.59"/><polygon class="cls-2" points="795.36 292.28 795.38 292.95 795.02 292.96 795.36 292.28"/><polygon class="cls-2" points="795.35 291.61 795.36 292.28 794.77 291.97 794.62 292.29 730.96 293.59 731.74 292.91 795.35 291.61"/><polygon class="cls-2" points="795.36 292.28 795.02 292.96 794.27 292.98 794.62 292.29 795.36 292.28"/><polygon class="cls-2" points="795.36 292.28 794.62 292.29 794.77 291.97 795.36 292.28"/><polygon class="cls-2" points="795.02 292.96 670.23 535.88 669.61 536.08 669.81 536.72 669.22 536.41 794.27 292.98 795.02 292.96"/><polygon class="cls-2" points="794.62 292.29 794.27 292.98 729.93 294.28 729.91 293.62 730.35 294.12 730.96 293.59 794.62 292.29"/><polygon class="cls-2" points="779.33 501.99 779.53 502.63 670.01 537.36 669.81 536.72 670.39 537.02 670.7 536.44 779.33 501.99"/><polygon class="cls-2" points="779.13 501.35 779.33 501.99 778.77 501.61 778.91 501.41 779.13 501.35"/><polygon class="cls-2" points="779.33 501.99 670.7 536.44 671.13 535.6 778.91 501.41 778.77 501.61 779.33 501.99"/><polygon class="cls-2" points="731.74 292.91 730.96 293.59 729.91 293.62 730.7 292.94 731.74 292.91"/><polygon class="cls-2" points="730.96 293.59 730.35 294.12 729.91 293.62 730.96 293.59"/><polygon class="cls-2" points="730.7 292.94 729.91 293.62 729.9 292.95 730.7 292.94"/><polygon class="cls-2" points="671.13 535.6 670.7 536.44 669.81 536.72 670.23 535.88 671.13 535.6"/><polygon class="cls-2" points="670.7 536.44 670.39 537.02 669.81 536.72 670.7 536.44"/><polygon class="cls-2" points="670.23 535.88 669.81 536.72 669.61 536.08 670.23 535.88"/><path class="cls-4" d="M773.52,724.81c-2,.05-3.89.13-5.77.2a15,15,0,0,0,2.89-.59c2.09-.66,3.66-2.23,4.81-4.8,1-2.19.94-4.79.88-7.08,0-.49,0-1,0-1.42,0-8-2.5-15.55-4.93-22.91-1.26-3.83-2.57-7.79-3.53-11.8-1.85-7.77-4.52-16.57-10.18-22.88s-13.31-9.25-21.54-11.92c5.82.21,11.47.33,17,.46,10.83.25,21.23.47,32.14,1.29,4,2.53,8.18,5.79,8.95,10.7,1.54,9.75-3,30.83-6.75,40.49a102.77,102.77,0,0,0-4,14.08,108.06,108.06,0,0,1-3.61,13,9.44,9.44,0,0,1-1.61,3.28c-.58.4-2,.21-3.12.05A9.92,9.92,0,0,0,773.52,724.81Z"/><path class="cls-5" d="M765.77,725.09l2-.08a29.88,29.88,0,0,1-3.74.16Z"/><path class="cls-5" d="M763,865c.06,3.76-2,4.72-3.6,5.49l-.51.24c-2.28,1.14-6.5.3-8.21-1.64a8.75,8.75,0,0,1-2.49-5.8c-.38-3.45-.88-6.84-1.36-10.12-.6-4.1-1.17-8-1.53-11.94-.49-5.32-1.37-10.89-2.23-16.29-1-6.25-2-12.72-2.48-19q8.59-.5,17.3-1.34c.61,7.17,1.36,14.39,2.1,21.38.77,7.23,1.55,14.71,2.16,22.13C762.65,854.25,762.89,859.14,763,865Z"/><path class="cls-5" d="M758.27,804.16l0,.33-.42,0,0-.34Z"/><path class="cls-6" d="M745.34,695.93a2.81,2.81,0,0,1,.3-.74.77.77,0,0,1,.7-.39c.36,0,.62.39.77.7a23.29,23.29,0,0,1,1.06,2.46,20.14,20.14,0,0,0,1.2,2.73.75.75,0,0,1,0,.67c-.14.3-.56.36-.87.37a17.64,17.64,0,0,1-2.31-.09,18,18,0,0,0-1.82-.11h-.28a1.07,1.07,0,0,1-.92-.25,1,1,0,0,1,.19-1.46h0a12,12,0,0,0,1.92-3.79Z"/><path class="cls-5" d="M743.91,614.87a7,7,0,0,1,1,1c-.23-.23-.5-.46-.77-.68C744.09,615.05,744,615,743.91,614.87Z"/><path class="cls-5" d="M747.42,616.8a14.71,14.71,0,0,0-4.9-3.83s0-.08,0-.13a8.52,8.52,0,0,1,5.52,3.42c1.47,1.7,2.82,3.88,2.66,6.21A12.61,12.61,0,0,0,747.42,616.8Z"/><path class="cls-5" d="M743,701.42a1.22,1.22,0,0,1,.19-1.74,11.76,11.76,0,0,0,1.88-3.72l0-.09a2.94,2.94,0,0,1,.33-.8,1,1,0,0,1,.89-.48,1.31,1.31,0,0,1,.94.81,21.16,21.16,0,0,1,1.06,2.48,19.68,19.68,0,0,0,1.19,2.72,1,1,0,0,1,0,.86,1.19,1.19,0,0,1-1.05.48H748c-.62,0-1.23-.05-1.83-.11a16.81,16.81,0,0,0-2-.1h-.06A1.23,1.23,0,0,1,743,701.42Zm.34-1.6a1,1,0,0,0-.19,1.46,1.07,1.07,0,0,0,.92.25h.28a18,18,0,0,1,1.82.11,17.64,17.64,0,0,0,2.31.09c.31,0,.73-.07.87-.37a.75.75,0,0,0,0-.67,20.14,20.14,0,0,1-1.2-2.73,23.29,23.29,0,0,0-1.06-2.46c-.15-.31-.41-.67-.77-.7a.77.77,0,0,0-.7.39,2.81,2.81,0,0,0-.3.74l0,.09a12,12,0,0,1-1.92,3.79Z"/><path class="cls-5" d="M743.91,614.87a14.57,14.57,0,0,0-1.07-1,9,9,0,0,1,3.51,3.58,10.61,10.61,0,0,0-1.42-1.64A7,7,0,0,0,743.91,614.87Z"/><path class="cls-5" d="M744,614.31l.5.42c4.22,3.06,5.05,7.28,3.24,12a8.8,8.8,0,0,1-3.12,4.26,10.44,10.44,0,0,0,2.49-4.47c1.06-3.52,1-6.49-.8-9.1a9,9,0,0,0-3.51-3.58,4.07,4.07,0,0,0-.38-.28.21.21,0,0,0,0-.11A3.6,3.6,0,0,1,744,614.31Z"/><path class="cls-5" d="M742.35,612.36a7.47,7.47,0,0,0-.79-4.38l.21-.05a7.63,7.63,0,0,1,.79,4.44l0,.47h-.21Z"/><path class="cls-5" d="M742.53,612.84s0,.09,0,.13l-.2-.1v0Z"/><path class="cls-5" d="M742.46,613.68l.38.2a14.57,14.57,0,0,1,1.07,1,7.73,7.73,0,0,0-1.47-1A1.79,1.79,0,0,0,742.46,613.68Z"/><path class="cls-5" d="M742.52,613a4.57,4.57,0,0,1,0,.52l-.19,0c0-.19,0-.38,0-.57Z"/><path class="cls-5" d="M742.28,613.44l.19,0a.21.21,0,0,1,0,.11l-.19-.14Z"/><path class="cls-5" d="M742.46,613.68a1.79,1.79,0,0,1,0,.23l-.2-.11a1.8,1.8,0,0,1,0-.22Z"/><path class="cls-5" d="M742.27,613.46l.19.14s0,.06,0,.08l-.2-.1S742.27,613.5,742.27,613.46Z"/><path class="cls-5" d="M742.32,612.83v0l-.1,0Z"/><path class="cls-5" d="M742.28,613.44v0l0,0Z"/><path class="cls-5" d="M742.26,613.58a1.8,1.8,0,0,0,0,.22l-.11,0,.09-.19S742.24,613.58,742.26,613.58Z"/><path class="cls-5" d="M740.57,805.87c.46,6.3,1.49,12.77,2.48,19,.86,5.4,1.74,11,2.23,16.29.36,4,.93,7.84,1.53,11.94.48,3.28,1,6.67,1.36,10.12a8.75,8.75,0,0,0,2.49,5.8c1.71,1.94,5.93,2.78,8.21,1.64l.51-.24c1.63-.77,3.66-1.73,3.6-5.49-.09-5.81-.33-10.7-.85-16.91-.61-7.42-1.39-14.9-2.16-22.13-.74-7-1.49-14.21-2.1-21.38l.42,0c.61,7.16,1.36,14.39,2.1,21.37.77,7.24,1.56,14.72,2.16,22.15.52,6.21.77,11.12.85,16.94.07,4-2.19,5.09-3.84,5.87l-.51.24a6.24,6.24,0,0,1-2.74.56,8.42,8.42,0,0,1-6-2.3,9.15,9.15,0,0,1-2.59-6c-.38-3.43-.88-6.83-1.35-10.1-.61-4.1-1.18-8-1.54-12-.49-5.31-1.37-10.87-2.23-16.26-1-6.26-2-12.74-2.48-19.06Z"/><path class="cls-5" d="M741.71,607.82a.24.24,0,0,1,.06.11l-.21.05,0,0Z"/><path class="cls-7" d="M738.7,610a11.83,11.83,0,0,1,.27-1.56,19.64,19.64,0,0,0,2.59-.45,7.47,7.47,0,0,1,.79,4.38l0,.47h-.1l.1,0c0,.19,0,.38,0,.57h-.06l0,0s0,.09,0,.12,0,0,0,0l-.09.19-1.84-.16a4.4,4.4,0,0,0-.41-2.69A1.43,1.43,0,0,0,738.7,610Z"/><path class="cls-5" d="M740.87,605.59a1.64,1.64,0,0,1,0,.22h-.21l0-.22Z"/><path class="cls-5" d="M740.85,605.81c0,.15,0,.29-.07.44l-.2,0,.06-.39Z"/><path class="cls-5" d="M740.56,805.72s0,.1,0,.15l-.42,0s0-.1,0-.15Z"/><path class="cls-8" d="M737.82,724.26a11.11,11.11,0,0,0,.42-2.85,99.53,99.53,0,0,0,25.17,3.75h.6c-5.52.22-10.84.38-16.56.12-1.39-.06-5.54-.07-9.86,0C737.66,724.89,737.74,724.57,737.82,724.26Z"/><path class="cls-7" d="M737.2,619.49c-.07,0-.07,0-.19-.14s-.23-.26-.48-.51a7.08,7.08,0,0,0,1.22-2,1.1,1.1,0,0,0,.42.09,1.06,1.06,0,0,0,.4-.08c.78-.35,1.24-1.66,1.54-2.54a4.5,4.5,0,0,0,.18-.7l1.84.16.11,0a10.91,10.91,0,0,1-.61,2.6,5.25,5.25,0,0,1-2.62,3,2.2,2.2,0,0,1-1.56.19Z"/><path class="cls-5" d="M738.75,608.45l0-.17.21.05a.36.36,0,0,0,0,.1Z"/><path class="cls-5" d="M738.7,610c0,.08,0,.16,0,.22h0l0-.21Z"/><path class="cls-9" d="M738.06,615.89a20.79,20.79,0,0,0,.48-3.85c0-.6.07-1.22.13-1.83.44-.06.82.37,1,.78a4.26,4.26,0,0,1,.2,3.25c-.27.78-.72,2.08-1.41,2.39a.73.73,0,0,1-.66,0C737.91,616.39,738,616.14,738.06,615.89Z"/><path class="cls-5" d="M740.11,614.29c-.3.88-.76,2.19-1.54,2.54a1.06,1.06,0,0,1-.4.08,1.1,1.1,0,0,1-.42-.09c0-.06,0-.13.08-.2a.73.73,0,0,0,.66,0c.69-.31,1.14-1.61,1.41-2.39a4.26,4.26,0,0,0-.2-3.25c-.21-.41-.59-.84-1-.78,0-.06,0-.14,0-.22a1.43,1.43,0,0,1,1.18.91,4.4,4.4,0,0,1,.41,2.69A4.5,4.5,0,0,1,740.11,614.29Z"/><path class="cls-5" d="M757.52,653.67c-5.67-6.34-13.69-9.37-22.14-12.07h0l.74,0c8.23,2.67,16,5.72,21.54,11.92s8.33,15.11,10.18,22.88c1,4,2.27,8,3.53,11.8,2.43,7.36,4.93,14.95,4.93,22.91,0,.45,0,.93,0,1.42.06,2.29.11,4.89-.88,7.08-1.15,2.57-2.72,4.14-4.81,4.8a15,15,0,0,1-2.89.59l-2,.08-1.76.08h-.6a99.53,99.53,0,0,1-25.17-3.75,11.11,11.11,0,0,1-.42,2.85c-.08.31-.16.63-.23,1h-.21c.07-.36.15-.71.24-1a11.34,11.34,0,0,0,.41-2.94v-.13l.14,0A99.38,99.38,0,0,0,763.41,725a23,23,0,0,0,7.16-.73c2-.64,3.57-2.18,4.7-4.68,1-2.16.9-4.73.85-7,0-.49,0-1,0-1.42,0-7.92-2.5-15.5-4.93-22.85-1.26-3.83-2.57-7.79-3.52-11.8C765.79,668.72,763.15,660,757.52,653.67Z"/><path class="cls-5" d="M737.83,616.62c0,.07-.05.14-.08.2h0Z"/><path class="cls-5" d="M737.59,725.24l0,.17-.21,0,0-.13Z"/><path class="cls-5" d="M729.83,630.75a11.79,11.79,0,0,0,15.81-3.88A10.37,10.37,0,0,0,747,623.6a8.81,8.81,0,0,0-.71-5.78,8.35,8.35,0,0,0-1.37-2,10.61,10.61,0,0,1,1.42,1.64c0,.09.1.17.14.26a9,9,0,0,1,.73,5.93,10.34,10.34,0,0,1-1.41,3.33,12.09,12.09,0,0,1-7.3,5.21,12.06,12.06,0,0,1-8.7-1.21A.9.9,0,0,1,729.83,630.75Z"/><path class="cls-5" d="M737.16,619.7c-.14,0-.16-.06-.3-.21l-.47-.48a.69.69,0,0,0,.11-.13l0,0c.25.25.39.42.48.51s.12.13.19.14l.25.07a2.2,2.2,0,0,0,1.56-.19,5.25,5.25,0,0,0,2.62-3,10.91,10.91,0,0,0,.61-2.6l.2.11a10.15,10.15,0,0,1-.61,2.56,5.49,5.49,0,0,1-2.73,3.1,2.86,2.86,0,0,1-1.15.28,1.77,1.77,0,0,1-.56-.09Z"/><path class="cls-10" d="M734.85,620.32a6.65,6.65,0,0,0,1.54-1.31l.47.48c.14.15.16.18.3.21l.23.06a1.77,1.77,0,0,0,.56.09,2.86,2.86,0,0,0,1.15-.28,5.49,5.49,0,0,0,2.73-3.1,10.15,10.15,0,0,0,.61-2.56,7.73,7.73,0,0,1,1.47,1c.08.09.18.18.25.27.27.22.54.45.77.68a8.35,8.35,0,0,1,1.37,2,8.81,8.81,0,0,1,.71,5.78,10.37,10.37,0,0,1-1.37,3.27,11.79,11.79,0,0,1-15.81,3.88c0-.28,0-.56.07-.84a30.69,30.69,0,0,0,3.6-4.72,9.44,9.44,0,0,0,1.35-4.86Z"/><path class="cls-5" d="M736.37,619l.13-.11a.69.69,0,0,1-.11.13Z"/><path class="cls-5" d="M736.13,641.61l-.74,0,.09-.19Z"/><path class="cls-5" d="M735.88,608.45s0,.1,0,.14h-.24l.08-.2Z"/><path class="cls-5" d="M735.88,608.45l-.2-.06h0a22.78,22.78,0,0,0,6.39-.75,12.79,12.79,0,0,0,5.38-2.93,24.33,24.33,0,0,1-6.6,1.11,1.64,1.64,0,0,0,0-.22,23.11,23.11,0,0,0,7-1.25l.44-.16-.32.33a12.78,12.78,0,0,1-5.81,3.33l-.36.09a.24.24,0,0,0-.06-.11l-.18.12,0,0a19.64,19.64,0,0,1-2.59.45.36.36,0,0,1,0-.1l-.21-.05,0,.17a26.4,26.4,0,0,1-2.91.14S735.87,608.5,735.88,608.45Z"/><path class="cls-5" d="M735.55,641.25l-.07.15-.21-.07.09-.17h0Z"/><path class="cls-5" d="M735.48,641.4l-.09.19h0l-.16-.05.09-.2Z"/><path class="cls-5" d="M735.39,641.59h0l0,0Z"/><path class="cls-5" d="M735.34,641.58h-.18l0-.05Z"/><path class="cls-5" d="M735.27,641.33l-.09.2-.42-.14.07-.2Z"/><path class="cls-11" d="M735.56,615.34a15.86,15.86,0,0,0,.14-3.2c0-.3,0-.64,0-1a7.13,7.13,0,0,0,0-1.54,2.29,2.29,0,0,1,.14-1,26.4,26.4,0,0,0,2.91-.14,21.72,21.72,0,0,0-.42,3.57,20.47,20.47,0,0,1-.48,3.82,7.29,7.29,0,0,1-3,4.23,9.9,9.9,0,0,0,.54-3.1C735.43,616.43,735.48,615.87,735.56,615.34Z"/><path class="cls-5" d="M734.53,620.3a8.78,8.78,0,0,0,.66-3.35,15.17,15.17,0,0,1,.16-1.64,16.15,16.15,0,0,0,.14-3.15c0-.32,0-.67,0-1a8.27,8.27,0,0,0,0-1.5,2.3,2.3,0,0,1,.1-1h.24a2.29,2.29,0,0,0-.14,1,7.13,7.13,0,0,1,0,1.54c0,.36,0,.7,0,1a15.86,15.86,0,0,1-.14,3.2c-.08.53-.13,1.09-.16,1.63a9.9,9.9,0,0,1-.54,3.1,7.29,7.29,0,0,0,3-4.23,20.47,20.47,0,0,0,.48-3.82,21.72,21.72,0,0,1,.42-3.57l.22,0a11.83,11.83,0,0,0-.27,1.56h-.07l0,.21h0c-.06.61-.1,1.23-.13,1.83a20.79,20.79,0,0,1-.48,3.85c-.07.25-.15.5-.23.73l-.09.2h0a7.08,7.08,0,0,1-1.22,2l0,0-.13.11,0,0a6.65,6.65,0,0,1-1.54,1.31h-.21a.86.86,0,0,1,0,.16l-.26.16Z"/><path class="cls-5" d="M734.85,620.32h0l-.17.11,0,0a.86.86,0,0,0,0-.16Z"/><path class="cls-5" d="M735.36,641.16l-.09.17-.44-.14-.07.2.42.14,0,.05-.61,0,.21-.41Z"/><path class="cls-5" d="M734.76,641.14l-.21.41h0l0-.42Z"/><path class="cls-12" d="M727.27,671.47a52.5,52.5,0,0,1,5.91-6.7l.05,0,0-.06c-.92-2.48-1.07-5.49-.47-9.45.16-1.06.37-2.13.56-3.17a49.23,49.23,0,0,0,.89-6.2,11.93,11.93,0,0,1,1.19-4.24c8.45,2.7,16.47,5.73,22.14,12.07s8.27,15.05,10.13,22.8c1,4,2.26,8,3.52,11.8,2.43,7.35,4.93,14.93,4.93,22.85,0,.45,0,.93,0,1.42,0,2.27.11,4.84-.85,7-1.13,2.5-2.67,4-4.7,4.68a23,23,0,0,1-7.16.73,99.38,99.38,0,0,1-25.24-3.78l-.14,0v.13a11.34,11.34,0,0,1-.41,2.94c-.09.32-.17.67-.24,1l-7.45,0h-3.66c-3.58.4-7,.61-10.33.72a96.09,96.09,0,0,1,1.16-10.63l0-.12H717a23.25,23.25,0,0,1-8.19-2.11c.47-7.19,1-12.84,1.71-18.29l3.93.75a2.77,2.77,0,0,1-.1.26l.21.07c0-.09.06-.19.1-.29l6.77,1.3,0-.11a48.22,48.22,0,0,1,9.45-20.62l0-.07,0-.06A40.84,40.84,0,0,0,727.27,671.47Zm22.32,30a1,1,0,0,0,0-.86,19.68,19.68,0,0,1-1.19-2.72,21.16,21.16,0,0,0-1.06-2.48,1.31,1.31,0,0,0-.94-.81,1,1,0,0,0-.89.48,2.94,2.94,0,0,0-.33.8l0,.09a11.76,11.76,0,0,1-1.88,3.72,1.14,1.14,0,0,0,.89,2.06h.06a16.81,16.81,0,0,1,2,.1c.6.06,1.21.11,1.83.11h.52A1.19,1.19,0,0,0,749.59,701.46Z"/><path class="cls-5" d="M741.56,634.22c-3.25,2.51-8.9.46-11.83-1.89a.06.06,0,0,1,0-.06,31.82,31.82,0,0,0,6.58,2.09c2.38.54,4.73.45,6.48-1.48A6.25,6.25,0,0,1,741.56,634.22Z"/><path class="cls-5" d="M729.9,629.87v0l-.24.25c0-.1,0-.21,0-.31Z"/><path class="cls-5" d="M729.85,637s0,0,0,.08l-.11,0Z"/><path class="cls-5" d="M729.74,630.71l.09,0a.9.9,0,0,0,0,.23l-.17-.09Z"/><path class="cls-5" d="M729.65,637.1a36.57,36.57,0,0,1,0-6.94l.24-.25c0,.28-.06.56-.07.84l-.09,0-.1.18.17.09c0,.42-.07.85-.08,1.29l-.19-.09.19.15a34.61,34.61,0,0,0,.12,4.67l-.1.1Z"/><path class="cls-5" d="M729.54,632.18l.19.09a.06.06,0,0,0,0,.06Z"/><path class="cls-13" d="M729.66,630.16a36.57,36.57,0,0,0,0,6.94h.1a10.24,10.24,0,0,1-3.18,1.76,22.72,22.72,0,0,1-5.25,1c-1.43.13-2.87.23-4.3.28a5.67,5.67,0,0,1-2.19-.19,24.44,24.44,0,0,1-.21-5.27h0a14.35,14.35,0,0,0,3.22.43H718c4.7,0,7.67-1.62,10.93-4.25A7.62,7.62,0,0,0,729.66,630.16Z"/><path class="cls-5" d="M732.46,596.84a10.6,10.6,0,0,0,6.44,2.42,9,9,0,0,1-7.2-1.34c-6.81-4.41-6.21-12.42-16.15-12.77a10.1,10.1,0,0,1,10.24,3.43C728,591.4,729.64,594.66,732.46,596.84Z"/><path class="cls-5" d="M722.7,725.9c0,.05,0,.1,0,.15l-.42,0s0-.1,0-.14Z"/><path class="cls-14" d="M735.16,641.58a11.84,11.84,0,0,0-1.18,4.25,49.92,49.92,0,0,1-.88,6.16c-.2,1-.4,2.12-.57,3.18-.6,4-.45,7,.45,9.49a54.49,54.49,0,0,0-5.93,6.75l-.06.07.07.06a42.77,42.77,0,0,1,3.62,4.6,48.45,48.45,0,0,0-9.42,20.54l-6.53-1.24c1.2-3.33,2.09-5.9,3-8.62.56-1.6,1.15-3.29,1.85-5.27a45.93,45.93,0,0,0,1.69-6.78c.15-.87.42-1.91.71-3a31,31,0,0,0,.84-3.89,31.62,31.62,0,0,1,1.14-6.09,32.52,32.52,0,0,1,2-4.47c1.39-2.74,2.93-5.5,4.43-8.17,1.38-2.47,2.81-5,4.12-7.58Z"/><path class="cls-5" d="M733.18,664.77a52.5,52.5,0,0,0-5.91,6.7,40.84,40.84,0,0,1,3.63,4.61l0,.06,0,.07a48.22,48.22,0,0,0-9.45,20.62l0,.11-6.77-1.3.07-.2,6.53,1.24a48.45,48.45,0,0,1,9.42-20.54,42.77,42.77,0,0,0-3.62-4.6l-.07-.06.06-.07a54.49,54.49,0,0,1,5.93-6.75c-.9-2.5-1.05-5.52-.45-9.49.17-1.06.37-2.14.57-3.18a49.92,49.92,0,0,0,.88-6.16,11.84,11.84,0,0,1,1.18-4.25h.18l0,0a11.93,11.93,0,0,0-1.19,4.24,49.23,49.23,0,0,1-.89,6.2c-.19,1-.4,2.11-.56,3.17-.6,4-.45,7,.47,9.45l0,.06Z"/><path class="cls-5" d="M721.15,598.61l-.76-.81c-2.7-2.87-5.49-5.85-9.32-5.85v-.21c3.92,0,6.74,3,9.47,5.92.25.27.5.54.76.8.43.46.86.94,1.28,1.41a18.47,18.47,0,0,0,4.77,4.23c2.57,1.38,5.65,1.44,8.37,1.5,1.58,0,3.26.07,4.95,0l0,.22c-1.68.06-3.34,0-4.92,0-2.75-.06-5.86-.12-8.47-1.53a18.39,18.39,0,0,1-4.83-4.27C722,599.55,721.58,599.06,721.15,598.61Z"/><path class="cls-5" d="M734.58,641a23.8,23.8,0,0,1-3.52-.08H731l-.09-4.68a9.48,9.48,0,0,1-4.24,2.8,23.26,23.26,0,0,1-5.3,1c-1.43.13-2.88.23-4.31.28a6.27,6.27,0,0,1-2.17-.16,2.24,2.24,0,0,1,0-.24,5.67,5.67,0,0,0,2.19.19c1.43,0,2.87-.15,4.3-.28a22.72,22.72,0,0,0,5.25-1,10.24,10.24,0,0,0,3.18-1.76l.11,0s0-.05,0-.08a6.73,6.73,0,0,0,1-1.1l.19-.24.1,5.08a21.75,21.75,0,0,0,3.57.07l.19,0-.09.18-.09.18h-.21l0,.42h0c-1.31,2.54-2.74,5.11-4.12,7.58-1.5,2.67-3,5.43-4.43,8.17a32.52,32.52,0,0,0-2,4.47,31.62,31.62,0,0,0-1.14,6.09,31,31,0,0,1-.84,3.89c-.29,1.11-.56,2.15-.71,3a45.93,45.93,0,0,1-1.69,6.78c-.7,2-1.29,3.67-1.85,5.27-1,2.72-1.85,5.29-3,8.62l-.21,0c1.21-3.35,2.11-5.92,3.07-8.65.55-1.61,1.15-3.29,1.84-5.27a45.59,45.59,0,0,0,1.69-6.75c.14-.87.42-1.92.7-3a32.93,32.93,0,0,0,.84-3.86,30.8,30.8,0,0,1,1.15-6.14,32.46,32.46,0,0,1,2-4.5c1.38-2.74,2.92-5.5,4.42-8.18S733.22,643.71,734.58,641Z"/><path class="cls-5" d="M715.93,726.15l-.21,0V726h.22S715.93,726.1,715.93,726.15Z"/><path class="cls-15" d="M716.87,715.45A101.36,101.36,0,0,0,715.72,726c-1.42,0-2.84.08-4.28.09.06-1.39,0-2.81,0-4.18a45.25,45.25,0,0,1,.39-7.41A21.67,21.67,0,0,0,716.87,715.45Z"/><path class="cls-5" d="M714.86,640.18s0,.05,0,.07l-.21,0,0-.2Z"/><path class="cls-5" d="M714.83,639.94l-.23-.09a24.43,24.43,0,0,1-.19-5.2l.21,0A24.44,24.44,0,0,0,714.83,639.94Z"/><path class="cls-5" d="M714.63,640.09l0-.24.23.09a2.24,2.24,0,0,0,0,.24Z"/><path class="cls-5" d="M714.66,695.64c0,.1-.07.2-.1.29l-.21-.07a2.77,2.77,0,0,0,.1-.26Z"/><path class="cls-5" d="M714.66,695.64l-.21,0,.07-.2.21,0Z"/><path class="cls-5" d="M713.64,641.13v.42h-.18c0-.14.07-.28.11-.42Z"/><path class="cls-5" d="M713.31,644.06v.21H713c0-.07,0-.14,0-.21Z"/><path class="cls-5" d="M713.65,641.55v-.42h-.06c.14-.5.28-1,.44-1.47l0-.14.12.08a3.58,3.58,0,0,0,.42.25l0,.24a2,2,0,0,1-.45-.24c-.42,1.36-.81,2.76-1.18,4.21h-.21c.21-.86.44-1.69.68-2.51Z"/><path class="cls-5" d="M713,644.06c0,.07,0,.14,0,.21h-.22a1.41,1.41,0,0,1,.06-.22Z"/><path class="cls-16" d="M711.93,852.65c.5,4,1,7.83.23,12s-2.18,4.93-3.71,5.77c-2.05,1.14-5.84.3-7.38-1.63a9.32,9.32,0,0,1-2.24-5.81c-.35-3.44-.79-6.84-1.23-10.11-.55-4.1-1.06-8-1.39-11.94-.44-5.32-1.24-10.9-2-16.3-.84-5.88-1.71-11.94-2.16-17.87q6.71.1,13.41.11h2.3c.51,6.63,1.14,13.1,1.74,19.36.67,6.95,1.36,14.14,1.91,21.57C711.52,849.42,711.73,851.06,711.93,852.65Z"/><path class="cls-5" d="M718.9,576.12a21.5,21.5,0,0,1,17.63,9.13,25.92,25.92,0,0,1,2.3,5.19c.24.64.46,1.26.68,1.79a25.51,25.51,0,0,1,1.36,13.36h-.2a25.34,25.34,0,0,0-1.36-13.29c-.21-.55-.44-1.16-.68-1.81a26.76,26.76,0,0,0-2.27-5.13,21.27,21.27,0,0,0-17.46-9h-.43c-4,.09-7.41,1.38-9.54,3.59v-.06l-.28,0c2.16-2.33,5.7-3.7,9.83-3.79Z"/><path class="cls-5" d="M711.67,714.46a.59.59,0,0,1,0-.14l.21,0a1,1,0,0,0,0,.17Z"/><path class="cls-5" d="M711.22,726.11c.07-1.39.06-2.81.06-4.18a44.93,44.93,0,0,1,.39-7.47l.21.06a45.25,45.25,0,0,0-.39,7.41c0,1.37,0,2.79,0,4.18Z"/><path class="cls-5" d="M711.44,726.11c0,.06,0,.13,0,.19h-.21v-.18Z"/><path class="cls-5" d="M710.51,654.75c.66-3.79,1.39-7.26,2.22-10.47H713c-.83,3.23-1.57,6.71-2.23,10.51-.46,2.69-.88,5.43-1.25,8.14l-.19-.1C709.63,660.13,710.05,657.42,710.51,654.75Z"/><path class="cls-5" d="M710,698.76l0,.22-.17,0a1.52,1.52,0,0,0,0-.21A1,1,0,0,0,710,698.76Z"/><path class="cls-5" d="M709.47,662.92c0,.15,0,.31-.06.46a1.18,1.18,0,0,0-.19-.11c0-.15,0-.3.06-.45Z"/><path class="cls-5" d="M709.41,663.38a.57.57,0,0,1,0,.13l-.21,0a.83.83,0,0,1,0-.22A1.18,1.18,0,0,1,709.41,663.38Z"/><path class="cls-17" d="M709.13,671.29c-1.59-1.07-3-2-4.6-2.92l.09-.14,5.67,3.28.12-.15a19,19,0,0,0,1.87-2.77,3.75,3.75,0,0,0,.65-2.52,3.82,3.82,0,0,0-1.94-2.26c-.49-.31-1-.61-1.52-.89.37-2.71.79-5.45,1.25-8.14.66-3.8,1.4-7.28,2.23-10.51h.36v-.21H713c.37-1.45.76-2.85,1.18-4.21a2,2,0,0,0,.45.24l0,.2.21,0s0,0,0-.07a6.27,6.27,0,0,0,2.17.16c1.43-.05,2.88-.15,4.31-.28a23.26,23.26,0,0,0,5.3-1,9.48,9.48,0,0,0,4.24-2.8l.09,4.68h.09a23.8,23.8,0,0,0,3.52.08c-1.36,2.68-2.88,5.38-4.34,8s-3,5.44-4.42,8.18a32.46,32.46,0,0,0-2,4.5,30.8,30.8,0,0,0-1.15,6.14,32.93,32.93,0,0,1-.84,3.86c-.28,1.11-.56,2.16-.7,3a45.59,45.59,0,0,1-1.69,6.75c-.69,2-1.29,3.66-1.84,5.27-1,2.73-1.86,5.3-3.07,8.65l-4.07-.78-.11,0v.11c-.17,1.32-.33,2.65-.49,4a25,25,0,0,0-5.67-.49c-.6-.85-1.23-1.73-1.94-2.55l1.85-6.78a47.12,47.12,0,0,0,2-10.3l3.38-5.79A1.15,1.15,0,0,0,709.13,671.29Z"/><path class="cls-5" d="M709,710.14v.21h-.17a1.41,1.41,0,0,0,0-.21Z"/><path class="cls-5" d="M708.93,579.92l0,.15-.21,0Z"/><path class="cls-5" d="M708.92,579.86v.06l-.18.19a1.88,1.88,0,0,0-.33,0c.07-.09.15-.16.22-.25Z"/><path class="cls-5" d="M708.58,713.28v-.08c.07-1,.13-1.93.2-2.86H709v-.21h-.17c.3-4.13.63-7.76,1-11.19l.17,0,0-.22a1,1,0,0,1-.17,0c.16-1.37.32-2.7.49-4v-.11l.11,0,4.07.78-.07.2-3.93-.75c-.71,5.45-1.24,11.1-1.71,18.29a23.25,23.25,0,0,0,8.19,2.11h.12l0,.12A96.09,96.09,0,0,0,715.94,726h-.22a101.36,101.36,0,0,1,1.15-10.57,21.67,21.67,0,0,1-5-.93,1,1,0,0,1,0-.17l-.21,0a.59.59,0,0,0,0,.14c-1-.32-2-.7-3-1.15Z"/><path class="cls-5" d="M708.42,580.16a1.88,1.88,0,0,1,.33,0c-.14.16-.28.32-.41.49l-.17-.14Z"/><path class="cls-5" d="M708.15,806.59c0,.08,0,.16,0,.24h-.42c0-.07,0-.13,0-.2Z"/><path class="cls-18" d="M705.11,663a2.16,2.16,0,0,1,.93-.78,2.24,2.24,0,0,1,1.5.26c.56.25,1.13.52,1.68.82a.83.83,0,0,0,0,.22l.21,0a.57.57,0,0,0,0-.13c.46.25.92.52,1.36.79a3.45,3.45,0,0,1,1.75,2,3.39,3.39,0,0,1-.61,2.23A19.55,19.55,0,0,1,710.2,671l-7.5-4.32A19.73,19.73,0,0,1,705.11,663Z"/><path class="cls-5" d="M706.14,678.07c0,.18,0,.36,0,.54l-.23.39c0-.3,0-.61,0-.92v0Z"/><path class="cls-5" d="M705.94,678.06v0Z"/><path class="cls-5" d="M705.12,644.4v.17h-.21v-.17Z"/><polygon class="cls-5" points="704.3 722.97 704.22 723.02 704.19 722.98 704.21 722.91 704.3 722.97"/><polygon class="cls-5" points="704.22 723.02 704.3 722.97 704.4 723.02 703.55 724.71 703.46 724.66 703.54 724.6 703.44 724.46 704.19 722.98 704.22 723.02"/><polygon class="cls-19" points="684.95 695.03 704.19 722.98 703.44 724.46 658.76 658.69 659.46 657.99 684.95 695.03"/><path class="cls-5" d="M703.88,688.85a51.24,51.24,0,0,0,2-9.85l.23-.39a47.12,47.12,0,0,1-2,10.3l-1.85,6.78a.68.68,0,0,0-.17-.17Z"/><path class="cls-20" d="M708.59,713.2v.08l.07,0c1,.45,2,.83,3,1.15a44.93,44.93,0,0,0-.39,7.47c0,1.37,0,2.79-.06,4.18-2.24,0-4.53,0-6.92,0l-.1,0-.74-1.4v-.1l.09.05.85-1.69-.1,0,.09-.06-7.27-10.57a6.84,6.84,0,0,0,.91.06,19.93,19.93,0,0,0,5.33-1,19.26,19.26,0,0,1,5.43-1C708.72,711.27,708.66,712.22,708.59,713.2Z"/><polygon class="cls-5" points="703.44 724.46 703.54 724.6 703.46 724.66 703.46 724.55 703.4 724.55 703.44 724.46"/><polygon class="cls-5" points="703.46 724.55 703.46 724.66 703.37 724.61 703.4 724.55 703.46 724.55"/><polygon class="cls-5" points="703.37 724.61 703.46 724.66 703.37 724.72 703.25 724.55 703.4 724.55 703.37 724.61"/><path class="cls-21" d="M658.57,658.79l44.69,65.76H689.12l-.08-.07-.06.07h-10.9l-.07,0c.31-1.5.54-3,.7-4.5l.07-.61c.55-5.06,1.08-9.84-1.89-13.94-3.91-5.41-11.5-8-18.87-6.49a23.28,23.28,0,0,0-12.33,7.31l-29.17-45.84Z"/><path class="cls-20" d="M693.37,724.76h10.09l.74,1.4a20.94,20.94,0,0,0-4.83,3.46h-9.24c.59-.88,1.06-1.54,1.49-2.14A17.62,17.62,0,0,0,693.37,724.76Z"/><path class="cls-22" d="M701.6,668.23a.87.87,0,0,1,.75-.44.81.81,0,0,1,.37.09,55.83,55.83,0,0,1,6.19,3.76.73.73,0,0,1,.22,1l-3.19,5.45h0v0l-8,13.79a1.63,1.63,0,0,1-.5.6.65.65,0,0,1-.23.09,12.84,12.84,0,0,0-2.73-.09l-.41,0a25.23,25.23,0,0,0-6.91,1.13q3.74-6.5,7.43-13Z"/><path class="cls-5" d="M705.91,661.79a2.48,2.48,0,0,1,1.79.28c.54.23,1.06.48,1.58.75,0,.15,0,.3-.06.45-.55-.3-1.12-.57-1.68-.82a2.24,2.24,0,0,0-1.5-.26,2.16,2.16,0,0,0-.93.78,19.73,19.73,0,0,0-2.41,3.67l7.5,4.32a19.55,19.55,0,0,0,1.71-2.58,3.39,3.39,0,0,0,.61-2.23,3.45,3.45,0,0,0-1.75-2c-.44-.27-.9-.54-1.36-.79,0-.15.05-.31.06-.46.52.28,1,.58,1.52.89a3.82,3.82,0,0,1,1.94,2.26,3.75,3.75,0,0,1-.65,2.52,19,19,0,0,1-1.87,2.77l-.12.15-5.67-3.28-2.48-1.43.09-.18a19.84,19.84,0,0,1,2.55-3.91A2.54,2.54,0,0,1,705.91,661.79Z"/><path class="cls-5" d="M702.23,695.69l0,.07-.2,0,0-.19A.68.68,0,0,1,702.23,695.69Z"/><path class="cls-5" d="M718,634.88c4.63,0,7.58-1.61,10.8-4.2a26,26,0,0,0,4.55-5.6,9.22,9.22,0,0,0,1.31-4.61l0,0,.17-.11a9.44,9.44,0,0,1-1.35,4.86,30.69,30.69,0,0,1-3.6,4.72v0l-.21,0c0,.1,0,.21,0,.31a7.62,7.62,0,0,1-.76.68c-3.26,2.63-6.23,4.25-10.93,4.25h-.13a14.35,14.35,0,0,1-3.22-.43,17.62,17.62,0,0,1-7-3.57,23.71,23.71,0,0,1-5.77-8.21l.06-.32h0a23.7,23.7,0,0,0,5.84,8.38,16.82,16.82,0,0,0,10.1,4Z"/><path class="cls-21" d="M773.64,802.27c-26.59,3.61-52.07,4.38-77.73,4.09a36.94,36.94,0,0,0,6-.84c4.35-1,10.45-3.27,14.71-8.24,5-5.85,6.23-13.95,6.77-21.11a287.21,287.21,0,0,0-.69-50.12c1.18-.09,2.36-.2,3.58-.33l3.63,0c5.71,0,15.25-.09,17.51,0,6.33.28,12.17,0,18.35-.21,2.51-.11,5.11-.21,7.74-.28a9.43,9.43,0,0,1,1.49.15c1.27.17,2.7.36,3.42-.12.44-.31,1-1.47,1.78-3.5a111.28,111.28,0,0,0,3.62-13,104.25,104.25,0,0,1,4-14c3.72-9.7,8.33-30.88,6.79-40.71-.76-4.8-4.6-8-8.49-10.56q5.49.42,11.2,1.08c3.41.56,9.57,2.4,12.53,8.32,2.17,5.81,2.7,12,1.68,20.19-1.54,10-4,20.05-6.39,29.74-2.84,11.53-5.77,23.44-7.15,35.43v7.65c4.81,26.43.69,43.78-12.57,53.07C782.06,800.59,777.77,801.44,773.64,802.27Z"/><path class="cls-5" d="M701.71,622.64l.17-.08-.06.32A2.56,2.56,0,0,1,701.71,622.64Z"/><path class="cls-23" d="M701,603a10.4,10.4,0,0,0,.11-3.5c0-.18,0-.35,0-.5a9,9,0,0,1,.62,4.64l0,.16.15,0c3.44-.81,6.29-3.85,8.45-9A7.21,7.21,0,0,1,715.3,597a32.53,32.53,0,0,1,3.15,4l.15.21a15.47,15.47,0,0,0,7.31,5.78,27.4,27.4,0,0,0,9.54,1.6h.15a2.3,2.3,0,0,0-.1,1,8.27,8.27,0,0,1,0,1.5c0,.36,0,.71,0,1a16.15,16.15,0,0,1-.14,3.15,15.17,15.17,0,0,0-.16,1.64,8.78,8.78,0,0,1-.66,3.35l-.16.33.26-.16a9.22,9.22,0,0,1-1.31,4.61,26,26,0,0,1-4.55,5.6c-3.22,2.59-6.17,4.2-10.8,4.2h-.13a16.82,16.82,0,0,1-10.1-4,23.7,23.7,0,0,1-5.84-8.38h0a12.67,12.67,0,0,0-.33-4.23l-1.46-7.58a11.92,11.92,0,0,1-.3-4.12,11.57,11.57,0,0,1,.72-2.37A12.88,12.88,0,0,0,701,603Z"/><path class="cls-24" d="M701.23,668c-.24.43-.49.85-.72,1.28a8.13,8.13,0,0,0-2.14-2.7c.46-.58,1-1.18,1.45-1.76,2.19-2.62,4.45-5.32,4.52-8.59,0-1.46.19-3,.36-4.69a52,52,0,0,0,.42-7,74.27,74.27,0,0,1,7.61-.29c-.83,3.21-1.56,6.68-2.22,10.47-.46,2.67-.88,5.38-1.23,8.07-.52-.27-1-.52-1.58-.75a2.48,2.48,0,0,0-1.79-.28,2.54,2.54,0,0,0-1.13.92,19.84,19.84,0,0,0-2.55,3.91l-.09.18,2.48,1.43-.09.14c-.52-.3-1-.59-1.62-.87A1.29,1.29,0,0,0,701.23,668Z"/><path class="cls-5" d="M700.51,669.29c.06.12.11.25.17.37l-.2.08-.1-.23A2.53,2.53,0,0,1,700.51,669.29Z"/><path class="cls-5" d="M735.55,641.25l-.18-.09c6.09.23,12,.36,17.73.49,10.81.24,21.18.47,32,1.28l.05-.08.16.1c3.93.29,7.92.66,12,1.13,3.49.59,9.8,2.47,12.85,8.58,2.22,5.91,2.74,12.2,1.72,20.42-1.55,10.06-4,20.08-6.4,29.78-2.83,11.51-5.76,23.41-7.14,35.36v7.59c4.83,26.56.65,44.06-12.78,53.47-3.43,1.71-7.75,2.58-11.92,3.41-5.17.71-10.32,1.3-15.42,1.8l0-.33-.43,0,0,.34q-8.7.86-17.3,1.34s0-.1,0-.15l-.42,0s0,.1,0,.15c-10.73.63-21.36.89-32,.93,0-.08,0-.16,0-.24l-.42,0c0,.07,0,.13,0,.2h-2.3q-6.71,0-13.41-.11a2,2,0,0,1,0-.25c1.3,0,2.6,0,3.89-.12,25.66.29,51.14-.48,77.73-4.09,4.13-.83,8.42-1.68,11.78-3.36,13.26-9.29,17.38-26.64,12.57-53.07v-7.65c1.38-12,4.31-23.9,7.15-35.43,2.38-9.69,4.85-19.7,6.39-29.74,1-8.14.49-14.38-1.68-20.19-3-5.92-9.12-7.76-12.53-8.32q-5.72-.66-11.2-1.08c3.89,2.52,7.73,5.76,8.49,10.56,1.54,9.83-3.07,31-6.79,40.71a104.25,104.25,0,0,0-4,14,111.28,111.28,0,0,1-3.62,13c-.74,2-1.34,3.19-1.78,3.5-.72.48-2.15.29-3.42.12a9.43,9.43,0,0,0-1.49-.15c-2.63.07-5.23.17-7.74.28-6.18.26-12,.49-18.35.21-2.26-.11-11.8-.06-17.51,0l-3.63,0c-1.22.13-2.4.24-3.58.33,0,0,0-.1,0-.15l-.42.05s0,.1,0,.14c-6,.47-11.62.47-17.95.47a21.12,21.12,0,0,0-4.61,3.29h0v-.22h-.36a20.94,20.94,0,0,1,4.83-3.46l.1,0c2.39,0,4.68,0,6.92,0v.18h.21c0-.06,0-.13,0-.19,1.44,0,2.86-.05,4.28-.09v.11l.21,0s0-.1,0-.14c3.37-.11,6.75-.32,10.33-.72h3.66l7.45,0,0,.13.21,0,0-.17c4.32,0,8.47,0,9.86,0,5.72.26,11,.1,16.56-.12a29.88,29.88,0,0,0,3.74-.16c1.88-.07,3.81-.15,5.77-.2a9.92,9.92,0,0,1,1.56.14c1.13.16,2.54.35,3.12-.05a9.44,9.44,0,0,0,1.61-3.28,108.06,108.06,0,0,0,3.61-13,102.77,102.77,0,0,1,4-14.08c3.71-9.66,8.29-30.74,6.75-40.49-.77-4.91-4.92-8.17-8.95-10.7-10.91-.82-21.31-1-32.14-1.29-5.49-.13-11.14-.25-17-.46l-.65-.21Z"/><path class="cls-5" d="M699.73,729.62v.22h-.58l.22-.22Z"/><path class="cls-25" d="M738.9,599.26a10.6,10.6,0,0,1-6.44-2.42c-2.82-2.18-4.45-5.44-6.67-8.26a10.1,10.1,0,0,0-10.24-3.43c9.94.35,9.34,8.36,16.15,12.77A9,9,0,0,0,738.9,599.26Zm-37,4.29a8.31,8.31,0,0,0-.88-5l-.19-.27v.33c0,.22,0,.54,0,.93a10.38,10.38,0,0,1-.1,3.41c-.13.42-.29.82-.44,1.22a11.89,11.89,0,0,0-.74,2.42,12.1,12.1,0,0,0,.3,4.18l1.46,7.59c.47,2.38.71,4.24-.35,6.14a74.05,74.05,0,0,0-2-10.27c-1.08-4.36-2.11-8.48-2.15-13.09,0-4.19,0-8.95,2-13.1s5.72-7.17,9.63-7.89l-.25.3.17.14c.13-.17.27-.33.41-.49l.21,0,0-.15c2.13-2.21,5.55-3.5,9.54-3.59h.43a21.27,21.27,0,0,1,17.46,9,26.76,26.76,0,0,1,2.27,5.13c.24.65.47,1.26.68,1.81a25.34,25.34,0,0,1,1.36,13.29c-1.69.07-3.37,0-4.95,0-2.72-.06-5.8-.12-8.37-1.5a18.47,18.47,0,0,1-4.77-4.23c-.42-.47-.85-1-1.28-1.41-.26-.26-.51-.53-.76-.8-2.73-2.91-5.55-5.92-9.47-5.92V592c3.83,0,6.62,3,9.32,5.85l.76.81c.43.45.86.94,1.27,1.4a18.39,18.39,0,0,0,4.83,4.27c2.61,1.41,5.72,1.47,8.47,1.53,1.58,0,3.24.07,4.92,0l-.06.39.2,0c0-.15.05-.29.07-.44a24.33,24.33,0,0,0,6.6-1.11,12.79,12.79,0,0,1-5.38,2.93,22.78,22.78,0,0,1-6.39.75h-.23a27.21,27.21,0,0,1-9.46-1.59,15.3,15.3,0,0,1-7.22-5.7l-.14-.21a33.84,33.84,0,0,0-3.18-4.08,7.44,7.44,0,0,0-5.28-2.24h-.06l0,.07C708,599.7,705.22,602.7,701.89,603.55Z"/><path class="cls-5" d="M704.34,656.24c-.07,3.27-2.33,6-4.52,8.59-.49.58-1,1.18-1.45,1.76a8.13,8.13,0,0,1,2.14,2.7,2.53,2.53,0,0,0-.13.22,7.9,7.9,0,0,0-2.22-2.81l-.08-.07.07-.09c.47-.61,1-1.24,1.51-1.84,2.17-2.59,4.4-5.27,4.47-8.47,0-1.45.19-3,.37-4.7a53.27,53.27,0,0,0,.41-6.95h.21a52,52,0,0,1-.42,7C704.53,653.21,704.37,654.78,704.34,656.24Z"/><path class="cls-5" d="M698.25,692.08a2.22,2.22,0,0,1-.47.61l-.63-.13a.65.65,0,0,0,.23-.09,1.63,1.63,0,0,0,.5-.6l8-13.79c0,.31,0,.62,0,.92Z"/><path class="cls-26" d="M709.81,698.94c-.38,3.43-.71,7.06-1,11.19a19.62,19.62,0,0,0-5.5,1c-2.13.6-4.31,1.24-6.34.94L685.14,695a25.94,25.94,0,0,1,4.42-1.52h0a24.25,24.25,0,0,1,6.79-.43,2,2,0,0,0,1.17-.14,4.77,4.77,0,0,1,.65.17,8.44,8.44,0,0,1,3.32,2.2,24.53,24.53,0,0,1,2.5,3.19l0,0h.05A25,25,0,0,1,709.81,698.94Z"/><path class="cls-5" d="M703.3,711.17a19.62,19.62,0,0,1,5.5-1,1.41,1.41,0,0,1,0,.21,19.26,19.26,0,0,0-5.43,1,19.93,19.93,0,0,1-5.33,1,6.84,6.84,0,0,1-.91-.06l-.16-.23C699,712.41,701.17,711.77,703.3,711.17Z"/><path class="cls-5" d="M709.81,698.94a25,25,0,0,0-5.7-.49h-.05l0,0a24.53,24.53,0,0,0-2.5-3.19,8.44,8.44,0,0,0-3.32-2.2,4.77,4.77,0,0,0-.65-.17l.05,0a.79.79,0,0,0,.18-.14l.48.14a8.47,8.47,0,0,1,3.41,2.25,2.67,2.67,0,0,1,.39.44l0,.19.2,0,0-.07c.71.82,1.34,1.7,1.94,2.55a25,25,0,0,1,5.67.49A1.52,1.52,0,0,1,709.81,698.94Z"/><path class="cls-5" d="M697.12,712.34l-.24,0,0-.22H697Z"/><path class="cls-5" d="M696.88,712.32l.24,0,7.27,10.57-.09.06-.09-.05,0,.05L685,695h0l.18-.08L697,712.11h-.06Z"/><path class="cls-5" d="M701,598.56a8.31,8.31,0,0,1,.88,5c3.33-.85,6.08-3.85,8.19-8.92l0-.07h.06a7.44,7.44,0,0,1,5.28,2.24,33.84,33.84,0,0,1,3.18,4.08l.14.21a15.3,15.3,0,0,0,7.22,5.7,27.21,27.21,0,0,0,9.46,1.59h.23l-.08.2h-.15a27.4,27.4,0,0,1-9.54-1.6,15.47,15.47,0,0,1-7.31-5.78l-.15-.21a32.53,32.53,0,0,0-3.15-4,7.21,7.21,0,0,0-5.06-2.17c-2.16,5.16-5,8.2-8.45,9l-.15,0,0-.16A9,9,0,0,0,701,599c0,.15,0,.32,0,.5A10.4,10.4,0,0,1,701,603a12.88,12.88,0,0,1-.45,1.23,11.57,11.57,0,0,0-.72,2.37,11.92,11.92,0,0,0,.3,4.12l1.46,7.58a12.67,12.67,0,0,1,.33,4.23l-.17.08a2.56,2.56,0,0,0,.11.24,5.91,5.91,0,0,1-.81,2l-.17.26,0-.31a73.93,73.93,0,0,0-2.08-10.56c-1.09-4.37-2.13-8.49-2.15-13.14,0-4.21-.07-9,2-13.19,2.14-4.35,6-7.41,10-8.05-.07.09-.15.16-.22.25-3.91.72-7.57,3.69-9.63,7.89s-2,8.91-2,13.1c0,4.61,1.07,8.73,2.15,13.09a74.05,74.05,0,0,1,2,10.27c1.06-1.9.82-3.76.35-6.14l-1.46-7.59a12.1,12.1,0,0,1-.3-4.18,11.89,11.89,0,0,1,.74-2.42c.15-.4.31-.8.44-1.22a10.38,10.38,0,0,0,.1-3.41c0-.39,0-.71,0-.93v-.33Z"/><path class="cls-5" d="M694.44,692.68a11.65,11.65,0,0,1,3.11.17,2,2,0,0,1-1.17.14,24.25,24.25,0,0,0-6.79.43A26.44,26.44,0,0,1,694.44,692.68Z"/><path class="cls-5" d="M694.42,692.47a12.84,12.84,0,0,1,2.73.09,2.6,2.6,0,0,1-.74,0,24,24,0,0,0-2.4-.07Z"/><path class="cls-5" d="M712.35,852.6c.51,4.06,1,7.9.24,12.1s-2.39,5.21-3.94,6.07a5.11,5.11,0,0,1-2.49.56,7.23,7.23,0,0,1-5.42-2.31,9.63,9.63,0,0,1-2.33-6c-.35-3.43-.8-6.82-1.23-10.09-.55-4.11-1.06-8-1.39-12-.44-5.3-1.24-10.88-2-16.27-.85-5.89-1.72-12-2.16-17.94H692c.45,5.93,1.32,12,2.16,17.87.77,5.4,1.57,11,2,16.3.33,4,.84,7.84,1.39,11.94.44,3.27.88,6.67,1.23,10.11a9.32,9.32,0,0,0,2.24,5.81c1.54,1.93,5.33,2.77,7.38,1.63,1.53-.84,3-1.64,3.71-5.77s.27-7.94-.23-12c-.2-1.59-.41-3.23-.53-4.89-.55-7.43-1.24-14.62-1.91-21.57-.6-6.26-1.23-12.73-1.74-19.36h.42c.52,6.61,1.14,13.07,1.74,19.32.67,7,1.36,14.15,1.91,21.57C711.94,849.38,712.15,851,712.35,852.6Z"/><path class="cls-5" d="M693.4,724.71l0,0h-.23l.07-.15Z"/><path class="cls-5" d="M693.14,724.76h.23a17.62,17.62,0,0,1-1.75,2.72c-.43.6-.9,1.26-1.49,2.14h-.26c.63-.94,1.14-1.64,1.58-2.26A18.86,18.86,0,0,0,693.14,724.76Z"/><path class="cls-5" d="M689.12,724.55h14.14l.11.17.09-.06v.1H693.37l0,0-.19-.1-.07.15h-4l.11-.14Z"/><path class="cls-14" d="M689.09,724.76h4a18.86,18.86,0,0,1-1.69,2.6c-.44.62-1,1.32-1.58,2.26h-4.51Z"/><path class="cls-5" d="M695.91,806.36c-1.29.08-2.59.12-3.89.12,0-.05,0-.11,0-.17Z"/><path class="cls-5" d="M692,806.48a2,2,0,0,0,0,.25h-.42c0-.07,0-.16,0-.24Z"/><path class="cls-5" d="M692,806.31c0,.06,0,.12,0,.17h-.41a.88.88,0,0,1,0-.17H692Z"/><path class="cls-5" d="M692,806.28v0h-.31Z"/><path class="cls-5" d="M690.13,729.62a1.77,1.77,0,0,0-.12.17l-.17-.12,0,0Z"/><polygon class="cls-5" points="689.2 724.62 689.09 724.76 688.82 724.76 688.98 724.55 689.12 724.55 689.2 724.62"/><polygon class="cls-5" points="689.12 724.55 688.98 724.55 689.03 724.48 689.12 724.55"/><polygon class="cls-5" points="688.98 724.55 688.82 724.76 678.08 724.76 678.08 724.55 688.98 724.55"/><path class="cls-5" d="M685.27,806.19l6.42.11h-.1a.88.88,0,0,0,0,.17h-2.54c-1.19,0-2.39,0-3.6,0a1.15,1.15,0,0,1,0-.19l-.21,0Z"/><path class="cls-5" d="M691.62,806.72c-2,0-4.11-.07-6.16-.11a.37.37,0,0,0,0-.11c1.21,0,2.41,0,3.6,0h2.54C691.61,806.56,691.62,806.65,691.62,806.72Z"/><path class="cls-5" d="M722.72,726.05a287.21,287.21,0,0,1,.69,50.12c-.54,7.16-1.77,15.26-6.77,21.11-4.26,5-10.36,7.22-14.71,8.24a36.94,36.94,0,0,1-6,.84l-3.91-.05v0l-.31,0-6.42-.11v-.11c1.28,0,2.56,0,3.8,0a54.51,54.51,0,0,0,12.76-1c4.3-1,10.31-3.22,14.48-8.1,4.93-5.76,6.14-13.78,6.68-20.87a286.39,286.39,0,0,0-.69-50Z"/><path class="cls-5" d="M701.6,668.23l-7.07,12.38q-3.71,6.52-7.43,13A25.23,25.23,0,0,1,694,692.5a26.58,26.58,0,0,0-7.77,1.76l.22-.36q3.87-6.74,7.71-13.5c2.06-3.64,4.14-7.27,6.21-10.89l.1.23.2-.08c-.06-.12-.11-.25-.17-.37.23-.43.48-.85.72-1.28a1.29,1.29,0,0,1,1.68-.51c.57.28,1.1.57,1.62.87,1.58.89,3,1.85,4.6,2.92a1.15,1.15,0,0,1,.37,1.53l-3.38,5.79c0-.18,0-.36,0-.54h-.2l3.19-5.45a.73.73,0,0,0-.22-1,55.83,55.83,0,0,0-6.19-3.76.81.81,0,0,0-.37-.09A.87.87,0,0,0,701.6,668.23Z"/><path class="cls-5" d="M694.44,692.68a26.44,26.44,0,0,0-4.85.74h0a21.81,21.81,0,0,0-2.85.77l-.53.18.06-.12A26.58,26.58,0,0,1,694,692.5a24,24,0,0,1,2.4.07,2.6,2.6,0,0,0,.74,0l.63.13a.79.79,0,0,1-.18.14l-.05,0A11.65,11.65,0,0,0,694.44,692.68Z"/><path class="cls-27" d="M686.46,693.9l-.22.36c-.41.16-.82.33-1.21.51l-14.81-21.5,15.6-17.72c2.55-2.89,5.17-5.87,8.54-7.85a26,26,0,0,1,10.55-3.12,53.27,53.27,0,0,1-.41,6.95c-.18,1.66-.34,3.25-.37,4.7-.07,3.2-2.3,5.88-4.47,8.47-.52.6-1,1.23-1.51,1.84l-.07.09.08.07a7.9,7.9,0,0,1,2.22,2.81c-2.07,3.62-4.15,7.25-6.21,10.89Q690.32,687.17,686.46,693.9Z"/><path class="cls-5" d="M694.25,647.51c5.63-3.31,12.73-3.43,18.54-3.45a1.41,1.41,0,0,0-.06.22,74.27,74.27,0,0,0-7.61.29v-.17h-.21v.17a26,26,0,0,0-10.55,3.12c-3.37,2-6,5-8.54,7.85l-15.6,17.72-.13-.19,15.57-17.67C688.21,652.51,690.85,649.51,694.25,647.51Z"/><path class="cls-5" d="M685.48,806.31a1.15,1.15,0,0,0,0,.19h-.2v-.21Z"/><path class="cls-5" d="M689.56,693.43a25.94,25.94,0,0,0-4.42,1.52l-.11-.18c.39-.18.8-.35,1.21-.51l-.06.12.53-.18A21.81,21.81,0,0,1,689.56,693.43Z"/><path class="cls-5" d="M689.14,729.84c-1.29,0-2.62,0-4,0h-.22l3.9-5.06h.27l-3.73,4.86h4.51l0,0,.17.12a1.77,1.77,0,0,1,.12-.17h9.24l-.22.22c-2.3,0-4.45,0-6.54,0Z"/><path class="cls-5" d="M685.06,806.27l.21,0v.21h.2a.37.37,0,0,1,0,.11H685Z"/><path class="cls-5" d="M685,694.77l.11.18L685,695l-.09-.19Z"/><path class="cls-5" d="M667.7,805.71c5.89.18,11.73.35,17.57.48v.1l-.21,0,0,.33c-5.77-.12-11.55-.28-17.37-.47C667.68,806,667.68,805.85,667.7,805.71Z"/><path class="cls-28" d="M685,806.6c-.46,6.25-1.48,12.65-2.46,18.84-.85,5.4-1.74,11-2.22,16.29-.37,4-.94,7.85-1.54,11.94-.48,3.28-1,6.67-1.36,10.12a8.73,8.73,0,0,1-2.49,5.8c-1.71,1.95-5.92,2.78-8.21,1.65-1.69-.85-3.29-1.65-4.11-5.78s-.3-7.93.26-12c.22-1.59.45-3.23.59-4.9.61-7.42,1.37-14.61,2.11-21.56.71-6.75,1.47-13.72,2.06-20.91C673.48,806.32,679.26,806.48,685,806.6Z"/><path class="cls-29" d="M676.55,705.73c2.87,4,2.35,8.67,1.81,13.64l-.07.61c-1.13,10.48-5.7,20.9-14.37,32.8-3.56,4.89-7.06,9.85-10.43,14.66-5.41,7.7-10.94,15.57-17,23.37l-.35,0-.1,0L636,791a76.78,76.78,0,0,1-6.41,8.21c-1.55,1.82-3,3.53-4.25,5.19l-.24.33c-1,1.14-2,2.26-3,3.39l-.75.83c-1.47,1.66-3,3.38-5.1,3.74s-4.21-.6-5.93-1.37l-10.49-4.71c-.45-.21-1-.39-1.42-.56-1.26-.45-2.45-.88-2.82-1.79a3.18,3.18,0,0,1,.43-2.53c1.92-3.87,3.85-8,5.72-11.95,1-2.11,2-4.21,3-6.25l8.67-18.16c.77-1.61,1.55-3.22,2.32-4.81h0v0c5.2-10.64,10.61-20.85,16.45-31.07l10.15-17.76a28.41,28.41,0,0,1,3.46-4.82l.07.12.19-.12-.11-.16a22.8,22.8,0,0,1,12.19-7.26C665.32,697.9,672.73,700.45,676.55,705.73Z"/><path class="cls-30" d="M678.08,724.55v.21h10.74l-3.9,5.06h.22c1.38,0,2.71,0,4,0h3.47c2.09,0,4.24,0,6.54,0-6.71,6.69-6.82,16.81-6.93,26.66a82.35,82.35,0,0,1-.81,12.91c-11.51,16.07-31.94,18.57-50,20.78l-4.33.54c5.93-7.69,11.38-15.44,16.72-23.05,3.37-4.8,6.86-9.76,10.43-14.66,7.47-10.25,11.91-19.42,13.74-28.49Z"/><polygon class="cls-5" points="670.1 673.08 670.22 673.27 670.18 673.31 670.02 673.17 670.1 673.08"/><path class="cls-5" d="M667.72,805.46a2.11,2.11,0,0,0,0,.25l-.43,0a2.46,2.46,0,0,0,0-.26Z"/><path class="cls-5" d="M667.7,805.71c0,.14,0,.28,0,.42l-.42,0,0-.42Z"/><path class="cls-5" d="M667.29,654.84a16.19,16.19,0,0,1,6.87-10.2c5.11-3.53,11.86-3.64,17.27-3.71,3.86-.06,7.65,0,11.31.09s7.16.15,10.84.11c0,.14-.08.28-.11.42-3.66.05-7.25,0-10.74-.11-3.66-.07-7.45-.15-11.29-.09-5.37.08-12,.18-17,3.64a15.65,15.65,0,0,0-6.69,9.91c-.49,2.93-.77,5.06-1,7.13-.2,1.54-.39,3-.65,4.72l-.33,0-.08-.12c.26-1.67.44-3.1.64-4.6C666.53,659.91,666.81,657.76,667.29,654.84Z"/><path class="cls-31" d="M702.73,641.44c3.49.08,7.08.16,10.74.11-.24.82-.47,1.65-.68,2.51-5.81,0-12.91.14-18.54,3.45-3.4,2-6,5-8.59,7.9l-15.57,17.67-4.39-6.38.33,0c.26-1.72.45-3.18.65-4.72.27-2.07.55-4.2,1-7.13a15.65,15.65,0,0,1,6.69-9.91c5-3.46,11.66-3.56,17-3.64C695.28,641.29,699.07,641.37,702.73,641.44Z"/><path class="cls-5" d="M665.62,666.58l.08.12-.1,0S665.61,666.61,665.62,666.58Z"/><path class="cls-5" d="M684.87,694.84l.09.19h0l-25.49-37,.09-.08-.08-.08.08-.06,6.07,8.81s0,.06,0,.1l.1,0,4.39,6.38-.07.09.16.14,0,0L685,694.77Z"/><path class="cls-5" d="M662.64,865.46c.82,4.13,2.42,4.93,4.11,5.78,2.29,1.13,6.5.3,8.21-1.65a8.73,8.73,0,0,0,2.49-5.8c.38-3.45.88-6.84,1.36-10.12.6-4.09,1.17-8,1.54-11.94.48-5.32,1.37-10.89,2.22-16.29,1-6.19,2-12.59,2.46-18.84h.43c-.47,6.27-1.48,12.69-2.47,18.9-.86,5.39-1.74,11-2.23,16.27-.36,4-.93,7.85-1.53,12-.48,3.27-1,6.66-1.36,10.1a9.19,9.19,0,0,1-2.59,6,8.4,8.4,0,0,1-6,2.3,6.13,6.13,0,0,1-2.74-.57c-1.71-.85-3.48-1.73-4.35-6.06s-.31-8,.26-12.1c.22-1.59.45-3.23.59-4.88.6-7.43,1.37-14.62,2.11-21.58.71-6.74,1.46-13.7,2.06-20.88l.42,0c-.59,7.19-1.35,14.16-2.06,20.91-.74,7-1.5,14.14-2.11,21.56-.14,1.67-.37,3.31-.59,4.9C662.34,857.53,661.81,861.33,662.64,865.46Z"/><polygon class="cls-5" points="659.46 657.99 659.42 657.93 659.47 657.93 659.47 657.83 659.55 657.91 659.46 657.99"/><polygon class="cls-5" points="659.47 657.93 659.42 657.93 659.39 657.89 659.47 657.83 659.47 657.93"/><polygon class="cls-5" points="659.21 657.94 659.39 657.75 659.47 657.83 659.39 657.89 659.42 657.93 659.21 657.94"/><polygon class="cls-32" points="616.59 660.26 617.23 659.62 659.21 657.94 658.57 658.57 616.59 660.26"/><polygon class="cls-5" points="658.71 658.62 658.76 658.69 658.7 658.75 658.62 658.68 658.71 658.62"/><polygon class="cls-5" points="703.25 724.55 658.57 658.79 658.62 658.79 658.62 658.68 658.7 658.75 658.76 658.69 703.44 724.46 703.4 724.55 703.25 724.55"/><polygon class="cls-5" points="658.62 658.57 658.62 658.68 658.55 658.6 658.57 658.57 658.62 658.57"/><polygon class="cls-5" points="658.57 658.57 659.21 657.94 659.42 657.93 659.46 657.99 658.76 658.69 658.71 658.62 658.62 658.68 658.62 658.57 658.57 658.57"/><polygon class="cls-5" points="658.57 658.79 658.54 658.74 658.62 658.68 658.62 658.79 658.57 658.79"/><polygon class="cls-5" points="616.52 660.46 616.46 660.38 616.59 660.26 658.57 658.57 658.55 658.6 658.62 658.68 658.54 658.74 658.57 658.79 616.52 660.46"/><path class="cls-5" d="M651.37,805.58c-5.19-.19-10.49-.36-15.82-.53,0-.15,0-.28,0-.43,5.33.17,10.63.36,15.8.54,5.33.18,10.63.37,15.9.53l0,.42C662,805.94,656.7,805.77,651.37,805.58Z"/><path class="cls-5" d="M678.36,719.37c.54-5,1.06-9.67-1.81-13.64-3.82-5.28-11.23-7.83-18.44-6.32a22.8,22.8,0,0,0-12.19,7.26l-.23-.37A23.28,23.28,0,0,1,658,699c7.37-1.53,15,1.08,18.87,6.49,3,4.1,2.44,8.88,1.89,13.94l-.07.61c-.16,1.5-.39,3-.7,4.5-1.83,9.07-6.27,18.24-13.74,28.49-3.57,4.9-7.06,9.86-10.43,14.66-5.34,7.61-10.79,15.36-16.72,23.05l-.59.08c6-7.8,11.55-15.67,17-23.37,3.37-4.81,6.87-9.77,10.43-14.66,8.67-11.9,13.24-22.32,14.37-32.8Z"/><path class="cls-5" d="M645.92,706.67l.11.16-.19.12-.07-.12A1.1,1.1,0,0,1,645.92,706.67Z"/><path class="cls-5" d="M645.69,706.3l.23.37a1.1,1.1,0,0,0-.15.16l-.23-.36A.57.57,0,0,1,645.69,706.3Z"/><path class="cls-5" d="M641.45,790.19c18-2.21,38.45-4.71,50-20.78a82.35,82.35,0,0,0,.81-12.91c.11-9.85.22-20,6.93-26.66h.59c-6.87,6.58-7,16.76-7.1,26.65a84,84,0,0,1-.81,13l-.05.09c-11.61,16.26-32.15,18.77-50.28,21-1.6.2-3.19.39-4.74.6l.36-.48Z"/><path class="cls-5" d="M635.57,804.61h-.42v0Z"/><path class="cls-5" d="M635.57,804.62c0,.15,0,.28,0,.43l-.43,0,0-.42Z"/><path class="cls-5" d="M634.82,723.91l.11-.2h0v.2Z"/><path class="cls-5" d="M636.76,791.21c-3.4,4.39-6.94,8.76-10.73,13.08H626c1.17-1.54,2.54-3.15,4-4.85a80.06,80.06,0,0,0,6.38-8.17Z"/><path class="cls-33" d="M626,804.29c3.79-4.32,7.33-8.69,10.73-13.08,1.55-.21,3.14-.4,4.74-.6,18.13-2.22,38.67-4.73,50.28-21l.05-.09a84,84,0,0,0,.81-13c.11-9.89.23-20.07,7.1-26.65a21.12,21.12,0,0,1,4.61-3.29c6.33,0,11.94,0,17.95-.47a286.39,286.39,0,0,1,.69,50c-.54,7.09-1.75,15.11-6.68,20.87-4.17,4.88-10.18,7.1-14.48,8.1a54.51,54.51,0,0,1-12.76,1c-1.24,0-2.52,0-3.8,0v.11c-5.84-.13-11.68-.3-17.57-.48a2.11,2.11,0,0,1,0-.25l-.43,0a2.46,2.46,0,0,1,0,.26c-5.27-.16-10.57-.35-15.9-.53-5.17-.18-10.47-.37-15.8-.54h0l-.42,0v0c-2.46-.08-4.94-.16-7.41-.22l-1.27-.07Z"/><path class="cls-34" d="M616.53,813c2.14-.45,3.66-2.17,5.14-3.84l.74-.82q1.68-1.82,3.27-3.66l.77,0,1.29.07,7.38.22c-.35,6.21-1.25,12.76-2.12,19.11-.77,5.57-1.56,11.33-1.94,16.66-.29,4-.77,7.85-1.28,12-.41,3.29-.83,6.69-1.14,10.14a9.07,9.07,0,0,1-2.26,5.84c-1.58,2-5.53,2.85-7.68,1.75-1.59-.83-3.11-1.6-4-5.72s-.39-7.94.08-12c.19-1.59.38-3.24.48-4.91.48-7.43.65-12.51.83-17.42s.35-10,.82-17.4l-.42,0Z"/><path class="cls-5" d="M625.68,804.69a3.23,3.23,0,0,0,.35-.4l.44,0,1.27.07c2.47.06,5,.14,7.41.22l0,.42-7.38-.22-1.29-.07Z"/><path class="cls-5" d="M626,804.29a3.23,3.23,0,0,1-.35.4h-.55c4-4.57,7.8-9.21,11.4-13.87l.59-.08-.36.48-.43,0a80.06,80.06,0,0,1-6.38,8.17c-1.46,1.7-2.83,3.31-4,4.85Z"/><path class="cls-5" d="M636,791l.05-.08.1,0,.35,0c-3.6,4.66-7.36,9.3-11.4,13.87h0l.24-.33c1.24-1.66,2.7-3.37,4.25-5.19A76.78,76.78,0,0,0,636,791Z"/><path class="cls-5" d="M615.43,760.09c5.18-10.57,10.56-20.72,16.36-30.88l3-5.3h.12v-.2l7-12.27a27.81,27.81,0,0,1,3.6-5l.23.36a28.41,28.41,0,0,0-3.46,4.82l-10.15,17.76c-5.84,10.22-11.25,20.43-16.45,31.07v-.39h-.29Z"/><polygon class="cls-5" points="617.17 659.52 617.25 659.6 617.23 659.62 617.17 659.62 617.17 659.52"/><polygon class="cls-5" points="617.17 659.52 617.17 659.42 659.47 657.73 659.47 657.83 659.39 657.75 659.21 657.94 617.23 659.62 617.25 659.6 617.17 659.52"/><polygon class="cls-5" points="616.42 660.31 616.46 660.38 616.4 660.44 616.33 660.37 616.42 660.31"/><polygon class="cls-5" points="616.25 660.29 617.1 659.45 617.17 659.52 617.17 659.62 617.23 659.62 616.59 660.26 616.33 660.27 616.33 660.37 616.25 660.29"/><polygon class="cls-5" points="616.4 660.44 616.46 660.38 616.52 660.46 616.33 660.47 616.33 660.37 616.4 660.44"/><path class="cls-5" d="M616.33,660.47h.19l29.17,45.84a.57.57,0,0,0-.15.17l-29.31-46,.1-.06Z"/><polygon class="cls-5" points="616.33 660.37 616.33 660.27 616.59 660.26 616.46 660.38 616.42 660.31 616.33 660.37"/><path class="cls-5" d="M615.72,760.09v.39l0,0h-.47l.21-.43h.29Z"/><path class="cls-5" d="M615.71,760.48v0h0Z"/><path class="cls-5" d="M617,813.07c-.47,7.43-.65,12.5-.82,17.4s-.35,10-.83,17.42c-.1,1.67-.29,3.32-.48,4.91-.47,4-.91,7.84-.08,12s2.36,4.89,4,5.72c2.15,1.1,6.1.2,7.68-1.75a9.07,9.07,0,0,0,2.26-5.84c.31-3.45.73-6.85,1.14-10.14.51-4.11,1-8,1.28-12,.38-5.33,1.17-11.09,1.94-16.66.87-6.35,1.77-12.9,2.12-19.11l.43,0c-.36,6.22-1.25,12.8-2.13,19.15-.77,5.56-1.55,11.32-1.94,16.64-.29,4-.77,7.86-1.28,12-.4,3.28-.83,6.67-1.14,10.11a9.36,9.36,0,0,1-2.35,6.07,7.68,7.68,0,0,1-5.7,2.39,5.57,5.57,0,0,1-2.5-.53c-1.62-.83-3.3-1.69-4.17-6s-.41-8,.07-12.1c.18-1.58.38-3.23.48-4.88.47-7.44.65-12.51.83-17.41s.35-10,.82-17.42Z"/><path class="cls-5" d="M612.67,812.44a2,2,0,0,1-.1.21l-.39-.14.1-.23Z"/><path class="cls-26" d="M611.4,768.46l-7.08,14.84-2,4.18-.11-.05-.08-.41-1.19.13-1.54.18-7.08,1c-1.47.2-3,.26-3.82-.66a2.8,2.8,0,0,1-.32-3,7.79,7.79,0,0,1,2.06-2.55c6.19-5.66,13.63-9.81,20.82-13.83Z"/><path class="cls-26" d="M607.23,821.51c-2.41,11.7-10.47,23.29-21.05,30.28a11.31,11.31,0,0,1-5,1.66c-1.5.21-2.52-1.2-3.5-2.58-.16-.21-.3-.42-.45-.62l21.53-43.66c.31.11.61.22.89.35l10.48,4.72c.64.28,1.32.59,2,.85a24.5,24.5,0,0,1-3.85,6.16c-.64.74-1.5,1.76-1.22,2.87Z"/><path class="cls-5" d="M607.72,763.63c0-.2.08-.4.11-.6a13.93,13.93,0,0,1,7.6-2.94l-.21.43a13.77,13.77,0,0,0-7.19,2.89Z"/><path class="cls-5" d="M607.83,763c0,.2-.06.4-.11.6a.09.09,0,0,1-.05,0l-.17,0c0-.14.06-.28.08-.42l.2-.15Z"/><path class="cls-5" d="M607.72,763.63v0h-.05A.09.09,0,0,0,607.72,763.63Z"/><path class="cls-5" d="M607.23,821.47l.08-.35.17.14,0,.18-.28.07Z"/><path class="cls-5" d="M608.33,818.67a24.5,24.5,0,0,0,3.85-6.16l.39.14a25,25,0,0,1-3.92,6.29c-.7.81-1.26,1.55-1.17,2.32l-.17-.14-.08.35v0l-.12,0C606.83,820.43,607.69,819.41,608.33,818.67Z"/><path class="cls-33" d="M593.52,726.62c5.14,1.62,9.07,4.59,11.07,8.36,1.52,2.83,2,6.07,2.4,9.19.87,6.25,1.76,12.72.59,19-.86.61-1.7,1.27-2.51,1.92a41.86,41.86,0,0,1-4.09,3c-3.29,2-7,3-11.26,4a52.08,52.08,0,0,0-10.51,4.06c0-15.77,0-32.1,1-48.3a3.86,3.86,0,0,1,1-2.5A51.42,51.42,0,0,1,593.52,726.62Z"/><path class="cls-5" d="M598.38,806.44l.12-.25.38.18-.11.22Z"/><path class="cls-5" d="M616.25,812.64c2.11-.36,3.63-2.08,5.1-3.74l.75-.83c1-1.13,2-2.25,3-3.39h.55q-1.59,1.84-3.27,3.66l-.74.82c-1.48,1.67-3,3.39-5.14,3.84l-.2,0a5.86,5.86,0,0,1-1,.09,8.79,8.79,0,0,1-2.74-.5,2,2,0,0,0,.1-.21l-.39-.16-.1.23c-.72-.26-1.4-.57-2-.85l-10.48-4.72c-.28-.13-.58-.24-.89-.35l.11-.22-.38-.18-.12.25-.11,0c-1.36-.48-2.63-.94-3.07-2a2.86,2.86,0,0,1,.06-2,7.9,7.9,0,0,1,.38-.89c1.92-3.87,3.85-8,5.72-12l1-2.06,2-4.18,7.08-14.84,1.59-3.32c.73-1.55,1.48-3.09,2.23-4.62h.47c-.77,1.59-1.55,3.2-2.32,4.81l-8.67,18.16c-1,2-2,4.14-3,6.25-1.87,4-3.8,8.08-5.72,11.95a3.18,3.18,0,0,0-.43,2.53c.37.91,1.56,1.34,2.82,1.79.47.17,1,.35,1.42.56l10.49,4.71C612,812,614.17,813,616.25,812.64Z"/><path class="cls-35" d="M601.36,789.54c-1.87,4-3.8,8.08-5.72,12a7.9,7.9,0,0,0-.38.89l-.07-.2a11.81,11.81,0,0,1-15.52-9.08c.58-.12,1.16-.26,1.74-.4,3.51-.86,7-1.76,10.43-2.64s6.88-1.77,10.38-2.63l.11.05Z"/><path class="cls-36" d="M591.73,789.65c-3.4.88-6.91,1.79-10.42,2.64l-1.92.44a13.16,13.16,0,0,1-2.58.29h0a7.41,7.41,0,0,1-4.19-1.42c-2.09-1.45-1.54-5.09-.49-7.21,1.77-3.53,3.43-5.9,6.68-7.52a53,53,0,0,1,11.05-4.32c4.24-1,8-2.07,11.37-4.1a39.87,39.87,0,0,0,4.13-3c.76-.6,1.54-1.22,2.34-1.8h.05v0l.31-.22a13.77,13.77,0,0,1,7.19-2.89c-.75,1.53-1.5,3.07-2.23,4.62l-1.59,3.32-.33-.16-.21-.37c-7.21,4-14.67,8.19-20.9,13.89a8.21,8.21,0,0,0-2.16,2.69,3.2,3.2,0,0,0,.41,3.41c1,1.06,2.6,1,4.18.79l6.42-.87C596.42,788.44,594.05,789.05,591.73,789.65Z"/><path class="cls-5" d="M585.16,801.12a12,12,0,0,0,10,1.06l.07.2a12,12,0,0,1-3.93.65,12,12,0,0,1-11.87-9.89l.21,0A12,12,0,0,0,585.16,801.12Z"/><path class="cls-21" d="M584.12,724.58c8.84-.22,17.26-.28,25.41-.33s16.48-.12,25.29-.34l-3,5.3c-5.8,10.16-11.18,20.31-16.36,30.88a13.93,13.93,0,0,0-7.6,2.94c1.11-6.29.23-12.69-.63-18.88-.41-3-.89-6.41-2.42-9.27-2-3.82-6-6.81-11.19-8.46a51.33,51.33,0,0,0-12.11-1.25A4.76,4.76,0,0,1,584.12,724.58Z"/><path class="cls-5" d="M604.78,734.88c1.53,2.86,2,6.27,2.42,9.27.86,6.19,1.74,12.59.63,18.88l-.05,0-.2.15c1.17-6.32.28-12.79-.59-19-.43-3.12-.88-6.36-2.4-9.19-2-3.77-5.93-6.74-11.07-8.36a51.42,51.42,0,0,0-12.29-1.23l.11-.11.14-.11a51.33,51.33,0,0,1,12.11,1.25C598.77,728.07,602.75,731.06,604.78,734.88Z"/><path class="cls-5" d="M581.34,725.28l-.11.11h-.05v-.21h.31Z"/><path class="cls-5" d="M579.6,792.7a2.57,2.57,0,0,0,.07.4l-.21,0c0-.13-.05-.27-.07-.4Z"/><path class="cls-5" d="M581.31,792.29c3.51-.85,7-1.76,10.42-2.64,2.32-.6,4.69-1.21,7.08-1.81l-6.42.87c-1.58.21-3.19.27-4.18-.79a3.2,3.2,0,0,1-.41-3.41,8.21,8.21,0,0,1,2.16-2.69c6.23-5.7,13.69-9.86,20.9-13.89l.21.37c-7.19,4-14.63,8.17-20.82,13.83a7.79,7.79,0,0,0-2.06,2.55,2.8,2.8,0,0,0,.32,3c.87.92,2.35.86,3.82.66l7.08-1,1.54-.18,1.19-.13.08.41c-3.5.86-7,1.76-10.38,2.63s-6.92,1.78-10.43,2.64c-.58.14-1.16.28-1.74.4a2.57,2.57,0,0,1-.07-.4l-.21,0h0Z"/><path class="cls-5" d="M579.07,776.26l.14-.07v.07Z"/><path class="cls-5" d="M580.24,727.89c-1,16.2-1,32.53-1,48.3l-.14.07H579c0-15.8,0-32.15,1-48.38a3.9,3.9,0,0,1,1.18-2.76,4.47,4.47,0,0,1,2.9-.75c8.85-.22,17.27-.28,25.42-.33s16.54-.12,25.4-.33l-.11.2c-8.81.22-17.19.28-25.29.34s-16.57.11-25.41.33a4.76,4.76,0,0,0-2.64.59h-.31v.21h.05A3.86,3.86,0,0,0,580.24,727.89Z"/><path class="cls-37" d="M577,850.68c.11.14.21.29.31.44,1,1.41,2.16,3,3.92,2.75a11.7,11.7,0,0,0,5.16-1.72c10.56-7,18.64-18.53,21.15-30.21a3.78,3.78,0,0,1,.85,2.77,12.36,12.36,0,0,0,.12,1.42,24.75,24.75,0,0,1-.14,5.77l-.61,5.91-4.78,4-5,4.13-.06,0V846a44.92,44.92,0,0,1-3.62,9.61,21.91,21.91,0,0,1-6.33,7.9,14.35,14.35,0,0,1-9.47,3c-3.49-.21-7.2-2.11-7.24-5.21C572.85,858.72,575,854.76,577,850.68Z"/><path class="cls-5" d="M577.16,850.4l-.37-.18h0s0,0,0,0l.15-.3.2.27.08.1Z"/><path class="cls-5" d="M576.78,850.21l21.6-43.77.39.15-21.53,43.66-.08-.1-.2-.27-.15.3s0,0,0,0Z"/><path class="cls-5" d="M579.21,776.26v-.07a52.08,52.08,0,0,1,10.51-4.06c4.22-1,8-2,11.26-4a41.86,41.86,0,0,0,4.09-3c.81-.65,1.65-1.31,2.51-1.92,0,.14-.05.28-.08.42l.17,0c-.8.58-1.58,1.2-2.34,1.8a39.87,39.87,0,0,1-4.13,3c-3.34,2-7.13,3.06-11.37,4.1a53,53,0,0,0-11.05,4.32c-3.25,1.62-4.91,4-6.68,7.52-1.05,2.12-1.6,5.76.49,7.21a7.41,7.41,0,0,0,4.19,1.42h0a13.16,13.16,0,0,0,2.58-.29h0c0,.13.05.27.07.4a13.88,13.88,0,0,1-2.65.3h0a7.88,7.88,0,0,1-4.43-1.49c-2.43-1.69-1.67-5.65-.62-7.75,1.76-3.52,3.52-6,6.86-7.7l.48-.24Z"/><path class="cls-5" d="M577.34,851.12c-.1-.15-.2-.3-.31-.44-2,4.08-4.18,8-5.75,10.65,0,3.1,3.75,5,7.24,5.21a14.35,14.35,0,0,0,9.47-3,21.91,21.91,0,0,0,6.33-7.9,44.92,44.92,0,0,0,3.62-9.61v-.07l.06,0,5-4.13,4.78-4,.61-5.91a24.75,24.75,0,0,0,.14-5.77,12.36,12.36,0,0,1-.12-1.42,3.78,3.78,0,0,0-.85-2.77c-2.51,11.68-10.59,23.23-21.15,30.21a11.7,11.7,0,0,1-5.16,1.72C579.5,854.14,578.35,852.53,577.34,851.12Zm31.5-26.42c0,.43,0,.88.11,1.37a24.49,24.49,0,0,1-.13,5.87L608.2,838l-.07.05-4.85,4-4.95,4.09a45.39,45.39,0,0,1-3.63,9.62,22.3,22.3,0,0,1-6.46,8.06,15.09,15.09,0,0,1-9,3.14l-.79,0c-3.7-.23-7.63-2.31-7.63-5.7v0l0-.06c1.59-2.65,3.8-6.75,5.9-10.94l.37.18.08-.15c.15.2.29.41.45.62,1,1.38,2,2.79,3.5,2.58a11.31,11.31,0,0,0,5-1.66c10.58-7,18.64-18.58,21.05-30.28l.28-.07,0-.18.11.1A4.07,4.07,0,0,1,608.84,824.7Z"/></svg>